<svg width="104" height="35" viewBox="0 0 104 35" fill="none" xmlns="http://www.w3.org/2000/svg">
<path d="M0.776 17.248C0.776 13.984 1.528 11.056 3.032 8.464C4.568 5.872 6.632 3.856 9.224 2.416C11.848 0.943997 14.712 0.207997 17.816 0.207997C21.368 0.207997 24.52 1.088 27.272 2.848C30.056 4.576 32.072 7.04 33.32 10.24H26.744C25.88 8.48 24.68 7.168 23.144 6.304C21.608 5.44 19.832 5.008 17.816 5.008C15.608 5.008 13.64 5.504 11.912 6.496C10.184 7.488 8.824 8.912 7.832 10.768C6.872 12.624 6.392 14.784 6.392 17.248C6.392 19.712 6.872 21.872 7.832 23.728C8.824 25.584 10.184 27.024 11.912 28.048C13.64 29.04 15.608 29.536 17.816 29.536C19.832 29.536 21.608 29.104 23.144 28.24C24.68 27.376 25.88 26.064 26.744 24.304H33.32C32.072 27.504 30.056 29.968 27.272 31.696C24.52 33.424 21.368 34.288 17.816 34.288C14.68 34.288 11.816 33.568 9.224 32.128C6.632 30.656 4.568 28.624 3.032 26.032C1.528 23.44 0.776 20.512 0.776 17.248ZM37.901 20.656C37.901 18 38.445 15.648 39.533 13.6C40.653 11.552 42.157 9.968 44.045 8.848C45.965 7.696 48.077 7.12 50.381 7.12C52.461 7.12 54.269 7.536 55.805 8.368C57.373 9.168 58.621 10.176 59.549 11.392V7.552H65.069V34H59.549V30.064C58.621 31.312 57.357 32.352 55.757 33.184C54.157 34.016 52.333 34.432 50.285 34.432C48.013 34.432 45.933 33.856 44.045 32.704C42.157 31.52 40.653 29.888 39.533 27.808C38.445 25.696 37.901 23.312 37.901 20.656ZM59.549 20.752C59.549 18.928 59.165 17.344 58.397 16C57.661 14.656 56.685 13.632 55.469 12.928C54.253 12.224 52.941 11.872 51.533 11.872C50.125 11.872 48.813 12.224 47.597 12.928C46.381 13.6 45.389 14.608 44.621 15.952C43.885 17.264 43.517 18.832 43.517 20.656C43.517 22.48 43.885 24.08 44.621 25.456C45.389 26.832 46.381 27.888 47.597 28.624C48.845 29.328 50.157 29.68 51.533 29.68C52.941 29.68 54.253 29.328 55.469 28.624C56.685 27.92 57.661 26.896 58.397 25.552C59.165 24.176 59.549 22.576 59.549 20.752ZM77.7283 11.392C78.5283 10.048 79.5843 9.008 80.8963 8.272C82.2403 7.504 83.8243 7.12 85.6483 7.12V12.784H84.2563C82.1123 12.784 80.4803 13.328 79.3603 14.416C78.2723 15.504 77.7283 17.392 77.7283 20.08V34H72.2563V7.552H77.7283V11.392ZM97.0621 12.016V26.656C97.0621 27.648 97.2861 28.368 97.7341 28.816C98.2141 29.232 99.0141 29.44 100.134 29.44H103.494V34H99.1741C96.7101 34 94.8221 33.424 93.5101 32.272C92.1981 31.12 91.5421 29.248 91.5421 26.656V12.016H88.4221V7.552H91.5421V0.975999H97.0621V7.552H103.494V12.016H97.0621Z" fill="black"/>
</svg>
