<svg width="35" height="13" viewBox="0 0 35 13" fill="none" xmlns="http://www.w3.org/2000/svg">
<path d="M0.768 6.4C0.768 5.30133 1.008 4.32 1.488 3.456C1.968 2.58133 2.624 1.904 3.456 1.424C4.288 0.933333 5.216 0.688 6.24 0.688C7.488 0.688 8.55467 0.986666 9.44 1.584C10.336 2.17067 10.9867 3.00267 11.392 4.08H10.08C9.76 3.32267 9.26933 2.73067 8.608 2.304C7.95733 1.87733 7.168 1.664 6.24 1.664C5.41867 1.664 4.67733 1.856 4.016 2.24C3.36533 2.624 2.85333 3.17867 2.48 3.904C2.10667 4.61867 1.92 5.45067 1.92 6.4C1.92 7.34933 2.10667 8.18133 2.48 8.896C2.85333 9.61067 3.36533 10.16 4.016 10.544C4.67733 10.928 5.41867 11.12 6.24 11.12C7.168 11.12 7.95733 10.912 8.608 10.496C9.26933 10.0693 9.76 9.48267 10.08 8.736H11.392C10.9867 9.80267 10.336 10.6293 9.44 11.216C8.544 11.8027 7.47733 12.096 6.24 12.096C5.216 12.096 4.288 11.856 3.456 11.376C2.624 10.8853 1.968 10.208 1.488 9.344C1.008 8.48 0.768 7.49867 0.768 6.4ZM13.1118 7.616C13.1118 6.72 13.2878 5.936 13.6398 5.264C14.0024 4.58133 14.4984 4.05867 15.1278 3.696C15.7678 3.32267 16.4878 3.136 17.2878 3.136C18.1198 3.136 18.8344 3.328 19.4318 3.712C20.0398 4.096 20.4771 4.58667 20.7438 5.184V3.264H21.8638V12H20.7438V10.064C20.4664 10.6613 20.0238 11.1573 19.4158 11.552C18.8184 11.936 18.1038 12.128 17.2718 12.128C16.4824 12.128 15.7678 11.9413 15.1278 11.568C14.4984 11.1947 14.0024 10.6667 13.6398 9.984C13.2878 9.30133 13.1118 8.512 13.1118 7.616ZM20.7438 7.632C20.7438 6.928 20.5998 6.30933 20.3118 5.776C20.0238 5.24267 19.6291 4.832 19.1278 4.544C18.6371 4.256 18.0931 4.112 17.4958 4.112C16.8771 4.112 16.3224 4.25067 15.8318 4.528C15.3411 4.80533 14.9518 5.21067 14.6638 5.744C14.3864 6.26667 14.2478 6.89067 14.2478 7.616C14.2478 8.33067 14.3864 8.96 14.6638 9.504C14.9518 10.0373 15.3411 10.448 15.8318 10.736C16.3224 11.0133 16.8771 11.152 17.4958 11.152C18.0931 11.152 18.6371 11.008 19.1278 10.72C19.6291 10.432 20.0238 10.0213 20.3118 9.488C20.5998 8.95467 20.7438 8.336 20.7438 7.632ZM25.5406 4.816C25.786 4.272 26.1593 3.85067 26.6606 3.552C27.1726 3.25333 27.7966 3.104 28.5326 3.104V4.272H28.2286C27.418 4.272 26.7673 4.49067 26.2766 4.928C25.786 5.36533 25.5406 6.096 25.5406 7.12V12H24.4206V3.264H25.5406V4.816ZM31.6735 4.208V9.632C31.6735 10.1653 31.7748 10.5333 31.9775 10.736C32.1802 10.9387 32.5375 11.04 33.0495 11.04H34.0735V12H32.8735C32.0842 12 31.4975 11.8187 31.1135 11.456C30.7295 11.0827 30.5375 10.4747 30.5375 9.632V4.208H29.3215V3.264H30.5375V1.072H31.6735V3.264H34.0735V4.208H31.6735Z" fill="black"/>
</svg>
