<svg width="1438" height="185" viewBox="0 0 1438 185" fill="none" xmlns="http://www.w3.org/2000/svg">
<rect width="1440" height="185" transform="translate(-2)" fill="#FAF3EA"/>
<g clip-path="url(#clip0_117_610)">
<path d="M100.355 66.0156C99.0743 66.0156 97.8741 66.3612 96.8389 66.9616V64.2578C96.8389 63.287 96.0519 62.5 95.0811 62.5H66.9561C65.9852 62.5 65.1982 63.287 65.1982 64.2578V66.983C64.1549 66.3693 62.9409 66.0156 61.6454 66.0156C57.7684 66.0156 54.6142 69.1698 54.6142 73.0469C54.6142 76.0041 55.4905 78.8615 57.1484 81.3102C59.9707 85.4789 63.4511 86.5607 66.3309 87.7127C67.9915 91.848 71.3495 95.1252 75.5384 96.6769L74.2421 104.922H73.9874C71.0796 104.922 68.7139 107.288 68.7139 110.195V118.984H66.9561C65.9854 118.984 65.1983 119.771 65.1983 120.742C65.1983 121.713 65.9854 122.5 66.9561 122.5H95.0811C96.0519 122.5 96.8389 121.713 96.8389 120.742C96.8389 119.771 96.0519 118.984 95.0811 118.984H93.3233V110.195C93.3233 107.288 90.9577 104.922 88.0499 104.922H87.7951L86.499 96.677C90.694 95.123 94.0557 91.8386 95.7138 87.6948C98.4343 86.6066 102 85.5217 104.852 81.3102C106.51 78.8615 107.386 76.004 107.386 73.0469C107.386 69.1698 104.232 66.0156 100.355 66.0156ZM65.1852 83.468C60.8992 81.7536 58.1298 77.6631 58.1298 73.0469C58.1298 71.1084 59.7069 69.5312 61.6454 69.5312C63.5839 69.5312 65.1611 71.1084 65.1611 73.0469C65.1611 73.1705 65.1741 73.291 65.1983 73.4073V81.8359C65.1983 82.4009 65.2287 82.9588 65.2868 83.5087L65.1852 83.468ZM89.8077 118.984H72.2296V115.469H89.8077V118.984ZM88.0499 108.438C89.0191 108.438 89.8077 109.226 89.8077 110.195V111.953H72.2296V110.195C72.2296 109.226 73.0181 108.438 73.9874 108.438C74.9411 108.438 85.8134 108.438 88.0499 108.438ZM77.8009 104.922L78.9641 97.523C79.6368 97.6107 80.3224 97.6562 81.0186 97.6562C81.7148 97.6562 82.4005 97.6105 83.0732 97.523L84.2364 104.922H77.8009ZM93.3233 81.8359C93.3233 88.6207 87.8034 94.1406 81.0186 94.1406C74.2338 94.1406 68.7139 88.6207 68.7139 81.8359V73.0469H93.3233V81.8359ZM93.3233 69.5312H68.7139V66.0156H93.3233V69.5312ZM96.8147 83.468L96.7522 83.493C96.8092 82.9483 96.8388 82.3955 96.8388 81.8359V73.0469C96.8389 71.1084 98.4161 69.5312 100.355 69.5312C102.293 69.5312 103.87 71.1084 103.87 73.0469C103.87 77.6631 101.101 81.7537 96.8147 83.468Z" fill="#242424"/>
</g>
<path d="M137.2 68.05V85.5H133.7V78.075H126.225V85.5H122.725V68.05H126.225V75.225H133.7V68.05H137.2ZM142.42 70C141.803 70 141.287 69.8083 140.87 69.425C140.47 69.025 140.27 68.5333 140.27 67.95C140.27 67.3667 140.47 66.8833 140.87 66.5C141.287 66.1 141.803 65.9 142.42 65.9C143.037 65.9 143.545 66.1 143.945 66.5C144.362 66.8833 144.57 67.3667 144.57 67.95C144.57 68.5333 144.362 69.025 143.945 69.425C143.545 69.8083 143.037 70 142.42 70ZM144.145 71.65V85.5H140.645V71.65H144.145ZM153.028 71.425C154.061 71.425 154.97 71.6333 155.753 72.05C156.536 72.45 157.153 72.975 157.603 73.625V71.65H161.128V85.6C161.128 86.8833 160.87 88.025 160.353 89.025C159.836 90.0417 159.061 90.8417 158.028 91.425C156.995 92.025 155.745 92.325 154.278 92.325C152.311 92.325 150.695 91.8667 149.428 90.95C148.178 90.0333 147.47 88.7833 147.303 87.2H150.778C150.961 87.8333 151.353 88.3333 151.953 88.7C152.57 89.0833 153.311 89.275 154.178 89.275C155.195 89.275 156.02 88.9667 156.653 88.35C157.286 87.75 157.603 86.8333 157.603 85.6V83.45C157.153 84.1 156.528 84.6417 155.728 85.075C154.945 85.5083 154.045 85.725 153.028 85.725C151.861 85.725 150.795 85.425 149.828 84.825C148.861 84.225 148.095 83.3833 147.528 82.3C146.978 81.2 146.703 79.9417 146.703 78.525C146.703 77.125 146.978 75.8833 147.528 74.8C148.095 73.7167 148.853 72.8833 149.803 72.3C150.77 71.7167 151.845 71.425 153.028 71.425ZM157.603 78.575C157.603 77.725 157.436 77 157.103 76.4C156.77 75.7833 156.32 75.3167 155.753 75C155.186 74.6667 154.578 74.5 153.928 74.5C153.278 74.5 152.678 74.6583 152.128 74.975C151.578 75.2917 151.128 75.7583 150.778 76.375C150.445 76.975 150.278 77.6917 150.278 78.525C150.278 79.3583 150.445 80.0917 150.778 80.725C151.128 81.3417 151.578 81.8167 152.128 82.15C152.695 82.4833 153.295 82.65 153.928 82.65C154.578 82.65 155.186 82.4917 155.753 82.175C156.32 81.8417 156.77 81.375 157.103 80.775C157.436 80.1583 157.603 79.425 157.603 78.575ZM172.346 71.45C173.396 71.45 174.33 71.6833 175.146 72.15C175.963 72.6 176.596 73.275 177.046 74.175C177.513 75.0583 177.746 76.125 177.746 77.375V85.5H174.246V77.85C174.246 76.75 173.971 75.9083 173.421 75.325C172.871 74.725 172.121 74.425 171.171 74.425C170.205 74.425 169.438 74.725 168.871 75.325C168.321 75.9083 168.046 76.75 168.046 77.85V85.5H164.546V67H168.046V73.375C168.496 72.775 169.096 72.3083 169.846 71.975C170.596 71.625 171.43 71.45 172.346 71.45ZM200.032 88.575L197.382 85.4C196.648 85.5833 195.898 85.675 195.132 85.675C193.498 85.675 191.998 85.2917 190.632 84.525C189.265 83.7583 188.182 82.7 187.382 81.35C186.582 79.9833 186.182 78.4417 186.182 76.725C186.182 75.025 186.582 73.5 187.382 72.15C188.182 70.7833 189.265 69.7167 190.632 68.95C191.998 68.1833 193.498 67.8 195.132 67.8C196.782 67.8 198.282 68.1833 199.632 68.95C200.998 69.7167 202.073 70.7833 202.857 72.15C203.657 73.5 204.057 75.025 204.057 76.725C204.057 78.275 203.723 79.6917 203.057 80.975C202.407 82.2417 201.515 83.275 200.382 84.075L204.382 88.575H200.032ZM189.782 76.725C189.782 77.8917 190.007 78.9167 190.457 79.8C190.907 80.6833 191.532 81.3667 192.332 81.85C193.148 82.3167 194.082 82.55 195.132 82.55C196.182 82.55 197.107 82.3167 197.907 81.85C198.707 81.3667 199.332 80.6833 199.782 79.8C200.232 78.9167 200.457 77.8917 200.457 76.725C200.457 75.5583 200.232 74.5417 199.782 73.675C199.332 72.7917 198.707 72.1167 197.907 71.65C197.107 71.1833 196.182 70.95 195.132 70.95C194.082 70.95 193.148 71.1833 192.332 71.65C191.532 72.1167 190.907 72.7917 190.457 73.675C190.007 74.5417 189.782 75.5583 189.782 76.725ZM219.784 71.65V85.5H216.259V83.75C215.809 84.35 215.218 84.825 214.484 85.175C213.768 85.5083 212.984 85.675 212.134 85.675C211.051 85.675 210.093 85.45 209.259 85C208.426 84.5333 207.768 83.8583 207.284 82.975C206.818 82.075 206.584 81.0083 206.584 79.775V71.65H210.084V79.275C210.084 80.375 210.359 81.225 210.909 81.825C211.459 82.4083 212.209 82.7 213.159 82.7C214.126 82.7 214.884 82.4083 215.434 81.825C215.984 81.225 216.259 80.375 216.259 79.275V71.65H219.784ZM222.338 78.525C222.338 77.125 222.613 75.8833 223.163 74.8C223.729 73.7167 224.488 72.8833 225.438 72.3C226.404 71.7167 227.479 71.425 228.663 71.425C229.696 71.425 230.596 71.6333 231.363 72.05C232.146 72.4667 232.771 72.9917 233.238 73.625V71.65H236.763V85.5H233.238V83.475C232.788 84.125 232.163 84.6667 231.363 85.1C230.579 85.5167 229.671 85.725 228.638 85.725C227.471 85.725 226.404 85.425 225.438 84.825C224.488 84.225 223.729 83.3833 223.163 82.3C222.613 81.2 222.338 79.9417 222.338 78.525ZM233.238 78.575C233.238 77.725 233.071 77 232.738 76.4C232.404 75.7833 231.954 75.3167 231.388 75C230.821 74.6667 230.213 74.5 229.563 74.5C228.913 74.5 228.313 74.6583 227.763 74.975C227.213 75.2917 226.763 75.7583 226.413 76.375C226.079 76.975 225.913 77.6917 225.913 78.525C225.913 79.3583 226.079 80.0917 226.413 80.725C226.763 81.3417 227.213 81.8167 227.763 82.15C228.329 82.4833 228.929 82.65 229.563 82.65C230.213 82.65 230.821 82.4917 231.388 82.175C231.954 81.8417 232.404 81.375 232.738 80.775C233.071 80.1583 233.238 79.425 233.238 78.575ZM243.681 67V85.5H240.181V67H243.681ZM248.914 70C248.297 70 247.781 69.8083 247.364 69.425C246.964 69.025 246.764 68.5333 246.764 67.95C246.764 67.3667 246.964 66.8833 247.364 66.5C247.781 66.1 248.297 65.9 248.914 65.9C249.531 65.9 250.039 66.1 250.439 66.5C250.856 66.8833 251.064 67.3667 251.064 67.95C251.064 68.5333 250.856 69.025 250.439 69.425C250.039 69.8083 249.531 70 248.914 70ZM250.639 71.65V85.5H247.139V71.65H250.639ZM258.172 74.525V81.225C258.172 81.6917 258.28 82.0333 258.497 82.25C258.73 82.45 259.114 82.55 259.647 82.55H261.272V85.5H259.072C256.122 85.5 254.647 84.0667 254.647 81.2V74.525H252.997V71.65H254.647V68.225H258.172V71.65H261.272V74.525H258.172ZM277.039 71.65L268.464 92.05H264.739L267.739 85.15L262.189 71.65H266.114L269.689 81.325L273.314 71.65H277.039Z" fill="#242424"/>
<path d="M121.74 113.98C121.74 112.847 121.967 111.853 122.42 111C122.887 110.133 123.527 109.467 124.34 109C125.153 108.533 126.087 108.3 127.14 108.3C128.473 108.3 129.573 108.62 130.44 109.26C131.32 109.887 131.913 110.787 132.22 111.96H129.76C129.56 111.413 129.24 110.987 128.8 110.68C128.36 110.373 127.807 110.22 127.14 110.22C126.207 110.22 125.46 110.553 124.9 111.22C124.353 111.873 124.08 112.793 124.08 113.98C124.08 115.167 124.353 116.093 124.9 116.76C125.46 117.427 126.207 117.76 127.14 117.76C128.46 117.76 129.333 117.18 129.76 116.02H132.22C131.9 117.14 131.3 118.033 130.42 118.7C129.54 119.353 128.447 119.68 127.14 119.68C126.087 119.68 125.153 119.447 124.34 118.98C123.527 118.5 122.887 117.833 122.42 116.98C121.967 116.113 121.74 115.113 121.74 113.98ZM136.772 110.08C137.106 109.52 137.546 109.087 138.092 108.78C138.652 108.46 139.312 108.3 140.072 108.3V110.66H139.492C138.599 110.66 137.919 110.887 137.452 111.34C136.999 111.793 136.772 112.58 136.772 113.7V119.5H134.492V108.48H136.772V110.08ZM141.408 113.94C141.408 112.833 141.635 111.853 142.088 111C142.555 110.147 143.181 109.487 143.968 109.02C144.768 108.54 145.648 108.3 146.608 108.3C147.475 108.3 148.228 108.473 148.868 108.82C149.521 109.153 150.041 109.573 150.428 110.08V108.48H152.728V119.5H150.428V117.86C150.041 118.38 149.515 118.813 148.848 119.16C148.181 119.507 147.421 119.68 146.568 119.68C145.621 119.68 144.755 119.44 143.968 118.96C143.181 118.467 142.555 117.787 142.088 116.92C141.635 116.04 141.408 115.047 141.408 113.94ZM150.428 113.98C150.428 113.22 150.268 112.56 149.948 112C149.641 111.44 149.235 111.013 148.728 110.72C148.221 110.427 147.675 110.28 147.088 110.28C146.501 110.28 145.955 110.427 145.448 110.72C144.941 111 144.528 111.42 144.208 111.98C143.901 112.527 143.748 113.18 143.748 113.94C143.748 114.7 143.901 115.367 144.208 115.94C144.528 116.513 144.941 116.953 145.448 117.26C145.968 117.553 146.515 117.7 147.088 117.7C147.675 117.7 148.221 117.553 148.728 117.26C149.235 116.967 149.641 116.54 149.948 115.98C150.268 115.407 150.428 114.74 150.428 113.98ZM160.343 110.34H158.303V119.5H156.003V110.34H154.703V108.48H156.003V107.7C156.003 106.433 156.336 105.513 157.003 104.94C157.683 104.353 158.743 104.06 160.183 104.06V105.96C159.489 105.96 159.003 106.093 158.723 106.36C158.443 106.613 158.303 107.06 158.303 107.7V108.48H160.343V110.34ZM165.023 110.34V116.44C165.023 116.853 165.117 117.153 165.303 117.34C165.503 117.513 165.837 117.6 166.303 117.6H167.703V119.5H165.903C164.877 119.5 164.09 119.26 163.543 118.78C162.997 118.3 162.723 117.52 162.723 116.44V110.34H161.423V108.48H162.723V105.74H165.023V108.48H167.703V110.34H165.023ZM179.905 113.72C179.905 114.133 179.878 114.507 179.825 114.84H171.405C171.471 115.72 171.798 116.427 172.385 116.96C172.971 117.493 173.691 117.76 174.545 117.76C175.771 117.76 176.638 117.247 177.145 116.22H179.605C179.271 117.233 178.665 118.067 177.785 118.72C176.918 119.36 175.838 119.68 174.545 119.68C173.491 119.68 172.545 119.447 171.705 118.98C170.878 118.5 170.225 117.833 169.745 116.98C169.278 116.113 169.045 115.113 169.045 113.98C169.045 112.847 169.271 111.853 169.725 111C170.191 110.133 170.838 109.467 171.665 109C172.505 108.533 173.465 108.3 174.545 108.3C175.585 108.3 176.511 108.527 177.325 108.98C178.138 109.433 178.771 110.073 179.225 110.9C179.678 111.713 179.905 112.653 179.905 113.72ZM177.525 113C177.511 112.16 177.211 111.487 176.625 110.98C176.038 110.473 175.311 110.22 174.445 110.22C173.658 110.22 172.985 110.473 172.425 110.98C171.865 111.473 171.531 112.147 171.425 113H177.525ZM181.388 113.94C181.388 112.833 181.615 111.853 182.068 111C182.535 110.147 183.162 109.487 183.948 109.02C184.748 108.54 185.635 108.3 186.608 108.3C187.328 108.3 188.035 108.46 188.728 108.78C189.435 109.087 189.995 109.5 190.408 110.02V104.7H192.708V119.5H190.408V117.84C190.035 118.373 189.515 118.813 188.848 119.16C188.195 119.507 187.442 119.68 186.588 119.68C185.628 119.68 184.748 119.44 183.948 118.96C183.162 118.467 182.535 117.787 182.068 116.92C181.615 116.04 181.388 115.047 181.388 113.94ZM190.408 113.98C190.408 113.22 190.248 112.56 189.928 112C189.622 111.44 189.215 111.013 188.708 110.72C188.202 110.427 187.655 110.28 187.068 110.28C186.482 110.28 185.935 110.427 185.428 110.72C184.922 111 184.508 111.42 184.188 111.98C183.882 112.527 183.728 113.18 183.728 113.94C183.728 114.7 183.882 115.367 184.188 115.94C184.508 116.513 184.922 116.953 185.428 117.26C185.948 117.553 186.495 117.7 187.068 117.7C187.655 117.7 188.202 117.553 188.708 117.26C189.215 116.967 189.622 116.54 189.928 115.98C190.248 115.407 190.408 114.74 190.408 113.98ZM205.518 110.34H203.478V119.5H201.178V110.34H199.878V108.48H201.178V107.7C201.178 106.433 201.512 105.513 202.178 104.94C202.858 104.353 203.918 104.06 205.358 104.06V105.96C204.665 105.96 204.178 106.093 203.898 106.36C203.618 106.613 203.478 107.06 203.478 107.7V108.48H205.518V110.34ZM209.819 110.08C210.152 109.52 210.592 109.087 211.139 108.78C211.699 108.46 212.359 108.3 213.119 108.3V110.66H212.539C211.646 110.66 210.966 110.887 210.499 111.34C210.046 111.793 209.819 112.58 209.819 113.7V119.5H207.539V108.48H209.819V110.08ZM219.995 119.68C218.955 119.68 218.015 119.447 217.175 118.98C216.335 118.5 215.675 117.833 215.195 116.98C214.715 116.113 214.475 115.113 214.475 113.98C214.475 112.86 214.722 111.867 215.215 111C215.708 110.133 216.382 109.467 217.235 109C218.088 108.533 219.042 108.3 220.095 108.3C221.148 108.3 222.102 108.533 222.955 109C223.808 109.467 224.482 110.133 224.975 111C225.468 111.867 225.715 112.86 225.715 113.98C225.715 115.1 225.462 116.093 224.955 116.96C224.448 117.827 223.755 118.5 222.875 118.98C222.008 119.447 221.048 119.68 219.995 119.68ZM219.995 117.7C220.582 117.7 221.128 117.56 221.635 117.28C222.155 117 222.575 116.58 222.895 116.02C223.215 115.46 223.375 114.78 223.375 113.98C223.375 113.18 223.222 112.507 222.915 111.96C222.608 111.4 222.202 110.98 221.695 110.7C221.188 110.42 220.642 110.28 220.055 110.28C219.468 110.28 218.922 110.42 218.415 110.7C217.922 110.98 217.528 111.4 217.235 111.96C216.942 112.507 216.795 113.18 216.795 113.98C216.795 115.167 217.095 116.087 217.695 116.74C218.308 117.38 219.075 117.7 219.995 117.7ZM241.309 108.3C242.175 108.3 242.949 108.48 243.629 108.84C244.322 109.2 244.862 109.733 245.249 110.44C245.649 111.147 245.849 112 245.849 113V119.5H243.589V113.34C243.589 112.353 243.342 111.6 242.849 111.08C242.355 110.547 241.682 110.28 240.829 110.28C239.975 110.28 239.295 110.547 238.789 111.08C238.295 111.6 238.049 112.353 238.049 113.34V119.5H235.789V113.34C235.789 112.353 235.542 111.6 235.049 111.08C234.555 110.547 233.882 110.28 233.029 110.28C232.175 110.28 231.495 110.547 230.989 111.08C230.495 111.6 230.249 112.353 230.249 113.34V119.5H227.969V108.48H230.249V109.74C230.622 109.287 231.095 108.933 231.669 108.68C232.242 108.427 232.855 108.3 233.509 108.3C234.389 108.3 235.175 108.487 235.869 108.86C236.562 109.233 237.095 109.773 237.469 110.48C237.802 109.813 238.322 109.287 239.029 108.9C239.735 108.5 240.495 108.3 241.309 108.3ZM256.605 110.34V116.44C256.605 116.853 256.699 117.153 256.885 117.34C257.085 117.513 257.419 117.6 257.885 117.6H259.285V119.5H257.485C256.459 119.5 255.672 119.26 255.125 118.78C254.579 118.3 254.305 117.52 254.305 116.44V110.34H253.005V108.48H254.305V105.74H256.605V108.48H259.285V110.34H256.605ZM266.167 119.68C265.127 119.68 264.187 119.447 263.347 118.98C262.507 118.5 261.847 117.833 261.367 116.98C260.887 116.113 260.647 115.113 260.647 113.98C260.647 112.86 260.893 111.867 261.387 111C261.88 110.133 262.553 109.467 263.407 109C264.26 108.533 265.213 108.3 266.267 108.3C267.32 108.3 268.273 108.533 269.127 109C269.98 109.467 270.653 110.133 271.147 111C271.64 111.867 271.887 112.86 271.887 113.98C271.887 115.1 271.633 116.093 271.127 116.96C270.62 117.827 269.927 118.5 269.047 118.98C268.18 119.447 267.22 119.68 266.167 119.68ZM266.167 117.7C266.753 117.7 267.3 117.56 267.807 117.28C268.327 117 268.747 116.58 269.067 116.02C269.387 115.46 269.547 114.78 269.547 113.98C269.547 113.18 269.393 112.507 269.087 111.96C268.78 111.4 268.373 110.98 267.867 110.7C267.36 110.42 266.813 110.28 266.227 110.28C265.64 110.28 265.093 110.42 264.587 110.7C264.093 110.98 263.7 111.4 263.407 111.96C263.113 112.507 262.967 113.18 262.967 113.98C262.967 115.167 263.267 116.087 263.867 116.74C264.48 117.38 265.247 117.7 266.167 117.7ZM276.421 110.1C276.807 109.593 277.334 109.167 278.001 108.82C278.667 108.473 279.421 108.3 280.261 108.3C281.221 108.3 282.094 108.54 282.881 109.02C283.681 109.487 284.307 110.147 284.761 111C285.214 111.853 285.441 112.833 285.441 113.94C285.441 115.047 285.214 116.04 284.761 116.92C284.307 117.787 283.681 118.467 282.881 118.96C282.094 119.44 281.221 119.68 280.261 119.68C279.421 119.68 278.674 119.513 278.021 119.18C277.367 118.833 276.834 118.407 276.421 117.9V124.74H274.141V108.48H276.421V110.1ZM283.121 113.94C283.121 113.18 282.961 112.527 282.641 111.98C282.334 111.42 281.921 111 281.401 110.72C280.894 110.427 280.347 110.28 279.761 110.28C279.187 110.28 278.641 110.427 278.121 110.72C277.614 111.013 277.201 111.44 276.881 112C276.574 112.56 276.421 113.22 276.421 113.98C276.421 114.74 276.574 115.407 276.881 115.98C277.201 116.54 277.614 116.967 278.121 117.26C278.641 117.553 279.187 117.7 279.761 117.7C280.347 117.7 280.894 117.553 281.401 117.26C281.921 116.953 282.334 116.513 282.641 115.94C282.961 115.367 283.121 114.7 283.121 113.94ZM306.231 108.3C307.097 108.3 307.871 108.48 308.551 108.84C309.244 109.2 309.784 109.733 310.171 110.44C310.571 111.147 310.771 112 310.771 113V119.5H308.511V113.34C308.511 112.353 308.264 111.6 307.771 111.08C307.277 110.547 306.604 110.28 305.751 110.28C304.897 110.28 304.217 110.547 303.711 111.08C303.217 111.6 302.971 112.353 302.971 113.34V119.5H300.711V113.34C300.711 112.353 300.464 111.6 299.971 111.08C299.477 110.547 298.804 110.28 297.951 110.28C297.097 110.28 296.417 110.547 295.911 111.08C295.417 111.6 295.171 112.353 295.171 113.34V119.5H292.891V108.48H295.171V109.74C295.544 109.287 296.017 108.933 296.591 108.68C297.164 108.427 297.777 108.3 298.431 108.3C299.311 108.3 300.097 108.487 300.791 108.86C301.484 109.233 302.017 109.773 302.391 110.48C302.724 109.813 303.244 109.287 303.951 108.9C304.657 108.5 305.417 108.3 306.231 108.3ZM312.912 113.94C312.912 112.833 313.139 111.853 313.592 111C314.059 110.147 314.685 109.487 315.472 109.02C316.272 108.54 317.152 108.3 318.112 108.3C318.979 108.3 319.732 108.473 320.372 108.82C321.025 109.153 321.545 109.573 321.932 110.08V108.48H324.232V119.5H321.932V117.86C321.545 118.38 321.019 118.813 320.352 119.16C319.685 119.507 318.925 119.68 318.072 119.68C317.125 119.68 316.259 119.44 315.472 118.96C314.685 118.467 314.059 117.787 313.592 116.92C313.139 116.04 312.912 115.047 312.912 113.94ZM321.932 113.98C321.932 113.22 321.772 112.56 321.452 112C321.145 111.44 320.739 111.013 320.232 110.72C319.725 110.427 319.179 110.28 318.592 110.28C318.005 110.28 317.459 110.427 316.952 110.72C316.445 111 316.032 111.42 315.712 111.98C315.405 112.527 315.252 113.18 315.252 113.94C315.252 114.7 315.405 115.367 315.712 115.94C316.032 116.513 316.445 116.953 316.952 117.26C317.472 117.553 318.019 117.7 318.592 117.7C319.179 117.7 319.725 117.553 320.232 117.26C320.739 116.967 321.145 116.54 321.452 115.98C321.772 115.407 321.932 114.74 321.932 113.98ZM329.887 110.34V116.44C329.887 116.853 329.98 117.153 330.167 117.34C330.367 117.513 330.7 117.6 331.167 117.6H332.567V119.5H330.767C329.74 119.5 328.953 119.26 328.407 118.78C327.86 118.3 327.587 117.52 327.587 116.44V110.34H326.287V108.48H327.587V105.74H329.887V108.48H332.567V110.34H329.887ZM344.768 113.72C344.768 114.133 344.741 114.507 344.688 114.84H336.268C336.335 115.72 336.661 116.427 337.248 116.96C337.835 117.493 338.555 117.76 339.408 117.76C340.635 117.76 341.501 117.247 342.008 116.22H344.468C344.135 117.233 343.528 118.067 342.648 118.72C341.781 119.36 340.701 119.68 339.408 119.68C338.355 119.68 337.408 119.447 336.568 118.98C335.741 118.5 335.088 117.833 334.608 116.98C334.141 116.113 333.908 115.113 333.908 113.98C333.908 112.847 334.135 111.853 334.588 111C335.055 110.133 335.701 109.467 336.528 109C337.368 108.533 338.328 108.3 339.408 108.3C340.448 108.3 341.375 108.527 342.188 108.98C343.001 109.433 343.635 110.073 344.088 110.9C344.541 111.713 344.768 112.653 344.768 113.72ZM342.388 113C342.375 112.16 342.075 111.487 341.488 110.98C340.901 110.473 340.175 110.22 339.308 110.22C338.521 110.22 337.848 110.473 337.288 110.98C336.728 111.473 336.395 112.147 336.288 113H342.388ZM349.292 110.08C349.625 109.52 350.065 109.087 350.612 108.78C351.172 108.46 351.832 108.3 352.592 108.3V110.66H352.012C351.118 110.66 350.438 110.887 349.972 111.34C349.518 111.793 349.292 112.58 349.292 113.7V119.5H347.012V108.48H349.292V110.08ZM355.848 107.02C355.434 107.02 355.088 106.88 354.808 106.6C354.528 106.32 354.388 105.973 354.388 105.56C354.388 105.147 354.528 104.8 354.808 104.52C355.088 104.24 355.434 104.1 355.848 104.1C356.248 104.1 356.588 104.24 356.868 104.52C357.148 104.8 357.288 105.147 357.288 105.56C357.288 105.973 357.148 106.32 356.868 106.6C356.588 106.88 356.248 107.02 355.848 107.02ZM356.968 108.48V119.5H354.688V108.48H356.968ZM359.201 113.94C359.201 112.833 359.428 111.853 359.881 111C360.348 110.147 360.974 109.487 361.761 109.02C362.561 108.54 363.441 108.3 364.401 108.3C365.268 108.3 366.021 108.473 366.661 108.82C367.314 109.153 367.834 109.573 368.221 110.08V108.48H370.521V119.5H368.221V117.86C367.834 118.38 367.308 118.813 366.641 119.16C365.974 119.507 365.214 119.68 364.361 119.68C363.414 119.68 362.548 119.44 361.761 118.96C360.974 118.467 360.348 117.787 359.881 116.92C359.428 116.04 359.201 115.047 359.201 113.94ZM368.221 113.98C368.221 113.22 368.061 112.56 367.741 112C367.434 111.44 367.028 111.013 366.521 110.72C366.014 110.427 365.468 110.28 364.881 110.28C364.294 110.28 363.748 110.427 363.241 110.72C362.734 111 362.321 111.42 362.001 111.98C361.694 112.527 361.541 113.18 361.541 113.94C361.541 114.7 361.694 115.367 362.001 115.94C362.321 116.513 362.734 116.953 363.241 117.26C363.761 117.553 364.308 117.7 364.881 117.7C365.468 117.7 366.014 117.553 366.521 117.26C367.028 116.967 367.434 116.54 367.741 115.98C368.061 115.407 368.221 114.74 368.221 113.98ZM375.796 104.7V119.5H373.516V104.7H375.796ZM382.789 119.68C381.922 119.68 381.142 119.527 380.449 119.22C379.769 118.9 379.229 118.473 378.829 117.94C378.429 117.393 378.216 116.787 378.189 116.12H380.549C380.589 116.587 380.809 116.98 381.209 117.3C381.622 117.607 382.136 117.76 382.749 117.76C383.389 117.76 383.882 117.64 384.229 117.4C384.589 117.147 384.769 116.827 384.769 116.44C384.769 116.027 384.569 115.72 384.169 115.52C383.782 115.32 383.162 115.1 382.309 114.86C381.482 114.633 380.809 114.413 380.289 114.2C379.769 113.987 379.316 113.66 378.929 113.22C378.556 112.78 378.369 112.2 378.369 111.48C378.369 110.893 378.542 110.36 378.889 109.88C379.236 109.387 379.729 109 380.369 108.72C381.022 108.44 381.769 108.3 382.609 108.3C383.862 108.3 384.869 108.62 385.629 109.26C386.402 109.887 386.816 110.747 386.869 111.84H384.589C384.549 111.347 384.349 110.953 383.989 110.66C383.629 110.367 383.142 110.22 382.529 110.22C381.929 110.22 381.469 110.333 381.149 110.56C380.829 110.787 380.669 111.087 380.669 111.46C380.669 111.753 380.776 112 380.989 112.2C381.202 112.4 381.462 112.56 381.769 112.68C382.076 112.787 382.529 112.927 383.129 113.1C383.929 113.313 384.582 113.533 385.089 113.76C385.609 113.973 386.056 114.293 386.429 114.72C386.802 115.147 386.996 115.713 387.009 116.42C387.009 117.047 386.836 117.607 386.489 118.1C386.142 118.593 385.649 118.98 385.009 119.26C384.382 119.54 383.642 119.68 382.789 119.68Z" fill="#898989"/>
<g clip-path="url(#clip1_117_610)">
<path d="M500.119 83.7612C499.328 81.3097 499.665 77.6296 497.607 74.7882C495.533 71.9244 491.926 71.1104 489.889 69.6207C487.874 68.1467 485.999 64.9392 482.609 63.8329C479.314 62.7579 475.945 64.2167 473.333 64.2167C470.722 64.2167 467.353 62.7575 464.058 63.8328C460.668 64.9388 458.792 68.1471 456.778 69.6204C454.743 71.1083 451.133 71.9245 449.06 74.7879C447.004 77.627 447.338 81.3154 446.547 83.7611C445.795 86.0888 443.333 88.8825 443.333 92.5003C443.333 96.1203 445.792 98.9032 446.547 101.239C447.339 103.691 447.002 107.371 449.059 110.212C451.133 113.076 454.74 113.89 456.777 115.38C458.792 116.854 460.668 120.061 464.058 121.168C467.35 122.242 470.724 120.784 473.333 120.784C475.939 120.784 479.321 122.24 482.609 121.168C485.999 120.062 487.874 116.854 489.889 115.38C491.924 113.892 495.533 113.076 497.607 110.213C499.663 107.373 499.329 103.685 500.119 101.239C500.871 98.9116 503.333 96.118 503.333 92.5003C503.333 88.8805 500.875 86.0984 500.119 83.7612ZM495.659 99.798C494.736 102.654 494.978 105.851 493.811 107.463C492.628 109.096 489.52 109.842 487.122 111.596C484.75 113.331 483.088 116.08 481.155 116.711C479.326 117.308 476.345 116.096 473.333 116.096C470.3 116.096 467.35 117.311 465.512 116.711C463.579 116.08 461.919 113.333 459.545 111.596C457.161 109.853 454.035 109.091 452.856 107.463C451.692 105.856 451.925 102.637 451.008 99.7981C450.109 97.0162 448.021 94.6074 448.021 92.5003C448.021 90.391 450.107 87.9905 451.008 85.2025C451.93 82.3462 451.689 79.1492 452.856 77.5375C454.038 75.9054 457.148 75.1569 459.545 73.4042C461.924 71.6641 463.576 68.9211 465.512 68.2893C467.339 67.6931 470.33 68.9045 473.333 68.9045C476.372 68.9045 479.315 67.689 481.155 68.2893C483.088 68.92 484.749 71.6688 487.122 73.4043C489.506 75.1477 492.631 75.9091 493.811 77.5377C494.974 79.1444 494.741 82.36 495.659 85.2023V85.2024C496.558 87.9843 498.646 90.3931 498.646 92.5003C498.646 94.6095 496.56 97.01 495.659 99.798ZM484.131 84.9774C485.047 85.8928 485.047 87.3767 484.131 88.292L472.4 100.023C471.485 100.938 470.001 100.938 469.086 100.023L462.535 93.473C461.62 92.5577 461.62 91.0737 462.535 90.1585C463.451 89.2433 464.935 89.2432 465.85 90.1585L470.743 95.0513L480.817 84.9775C481.732 84.0622 483.216 84.0622 484.131 84.9774Z" fill="#242424"/>
</g>
<path d="M538.383 68.05L533.508 85.5H529.383L526.108 73.075L522.683 85.5L518.583 85.525L513.883 68.05H517.633L520.708 81.6L524.258 68.05H528.158L531.508 81.525L534.608 68.05H538.383ZM539.769 78.525C539.769 77.125 540.044 75.8833 540.594 74.8C541.16 73.7167 541.919 72.8833 542.869 72.3C543.835 71.7167 544.91 71.425 546.094 71.425C547.127 71.425 548.027 71.6333 548.794 72.05C549.577 72.4667 550.202 72.9917 550.669 73.625V71.65H554.194V85.5H550.669V83.475C550.219 84.125 549.594 84.6667 548.794 85.1C548.01 85.5167 547.102 85.725 546.069 85.725C544.902 85.725 543.835 85.425 542.869 84.825C541.919 84.225 541.16 83.3833 540.594 82.3C540.044 81.2 539.769 79.9417 539.769 78.525ZM550.669 78.575C550.669 77.725 550.502 77 550.169 76.4C549.835 75.7833 549.385 75.3167 548.819 75C548.252 74.6667 547.644 74.5 546.994 74.5C546.344 74.5 545.744 74.6583 545.194 74.975C544.644 75.2917 544.194 75.7583 543.844 76.375C543.51 76.975 543.344 77.6917 543.344 78.525C543.344 79.3583 543.51 80.0917 543.844 80.725C544.194 81.3417 544.644 81.8167 545.194 82.15C545.76 82.4833 546.36 82.65 546.994 82.65C547.644 82.65 548.252 82.4917 548.819 82.175C549.385 81.8417 549.835 81.375 550.169 80.775C550.502 80.1583 550.669 79.425 550.669 78.575ZM561.112 73.8C561.562 73.0667 562.145 72.4917 562.862 72.075C563.595 71.6583 564.429 71.45 565.362 71.45V75.125H564.437C563.337 75.125 562.504 75.3833 561.937 75.9C561.387 76.4167 561.112 77.3167 561.112 78.6V85.5H557.612V71.65H561.112V73.8ZM571.219 73.8C571.669 73.0667 572.253 72.4917 572.969 72.075C573.703 71.6583 574.536 71.45 575.469 71.45V75.125H574.544C573.444 75.125 572.611 75.3833 572.044 75.9C571.494 76.4167 571.219 77.3167 571.219 78.6V85.5H567.719V71.65H571.219V73.8ZM576.927 78.525C576.927 77.125 577.202 75.8833 577.752 74.8C578.319 73.7167 579.077 72.8833 580.027 72.3C580.994 71.7167 582.069 71.425 583.252 71.425C584.285 71.425 585.185 71.6333 585.952 72.05C586.735 72.4667 587.36 72.9917 587.827 73.625V71.65H591.352V85.5H587.827V83.475C587.377 84.125 586.752 84.6667 585.952 85.1C585.169 85.5167 584.26 85.725 583.227 85.725C582.06 85.725 580.994 85.425 580.027 84.825C579.077 84.225 578.319 83.3833 577.752 82.3C577.202 81.2 576.927 79.9417 576.927 78.525ZM587.827 78.575C587.827 77.725 587.66 77 587.327 76.4C586.994 75.7833 586.544 75.3167 585.977 75C585.41 74.6667 584.802 74.5 584.152 74.5C583.502 74.5 582.902 74.6583 582.352 74.975C581.802 75.2917 581.352 75.7583 581.002 76.375C580.669 76.975 580.502 77.6917 580.502 78.525C580.502 79.3583 580.669 80.0917 581.002 80.725C581.352 81.3417 581.802 81.8167 582.352 82.15C582.919 82.4833 583.519 82.65 584.152 82.65C584.802 82.65 585.41 82.4917 585.977 82.175C586.544 81.8417 586.994 81.375 587.327 80.775C587.66 80.1583 587.827 79.425 587.827 78.575ZM602.445 71.45C604.095 71.45 605.429 71.975 606.445 73.025C607.462 74.0583 607.97 75.5083 607.97 77.375V85.5H604.47V77.85C604.47 76.75 604.195 75.9083 603.645 75.325C603.095 74.725 602.345 74.425 601.395 74.425C600.429 74.425 599.662 74.725 599.095 75.325C598.545 75.9083 598.27 76.75 598.27 77.85V85.5H594.77V71.65H598.27V73.375C598.737 72.775 599.329 72.3083 600.045 71.975C600.779 71.625 601.579 71.45 602.445 71.45ZM615.374 74.525V81.225C615.374 81.6917 615.482 82.0333 615.699 82.25C615.932 82.45 616.315 82.55 616.849 82.55H618.474V85.5H616.274C613.324 85.5 611.849 84.0667 611.849 81.2V74.525H610.199V71.65H611.849V68.225H615.374V71.65H618.474V74.525H615.374ZM634.241 71.65L625.666 92.05H621.941L624.941 85.15L619.391 71.65H623.316L626.891 81.325L630.516 71.65H634.241ZM654.81 73.45C654.81 74.3833 654.585 75.2583 654.135 76.075C653.701 76.8917 653.01 77.55 652.06 78.05C651.126 78.55 649.943 78.8 648.51 78.8H645.585V85.5H642.085V68.05H648.51C649.86 68.05 651.01 68.2833 651.96 68.75C652.91 69.2167 653.618 69.8583 654.085 70.675C654.568 71.4917 654.81 72.4167 654.81 73.45ZM648.36 75.975C649.326 75.975 650.043 75.7583 650.51 75.325C650.976 74.875 651.21 74.25 651.21 73.45C651.21 71.75 650.26 70.9 648.36 70.9H645.585V75.975H648.36ZM660.795 73.8C661.245 73.0667 661.828 72.4917 662.545 72.075C663.278 71.6583 664.111 71.45 665.045 71.45V75.125H664.12C663.02 75.125 662.186 75.3833 661.62 75.9C661.07 76.4167 660.795 77.3167 660.795 78.6V85.5H657.295V71.65H660.795V73.8ZM673.552 85.725C672.219 85.725 671.019 85.4333 669.952 84.85C668.885 84.25 668.044 83.4083 667.427 82.325C666.827 81.2417 666.527 79.9917 666.527 78.575C666.527 77.1583 666.835 75.9083 667.452 74.825C668.085 73.7417 668.944 72.9083 670.027 72.325C671.11 71.725 672.319 71.425 673.652 71.425C674.985 71.425 676.194 71.725 677.277 72.325C678.36 72.9083 679.21 73.7417 679.827 74.825C680.46 75.9083 680.777 77.1583 680.777 78.575C680.777 79.9917 680.452 81.2417 679.802 82.325C679.169 83.4083 678.302 84.25 677.202 84.85C676.119 85.4333 674.902 85.725 673.552 85.725ZM673.552 82.675C674.185 82.675 674.777 82.525 675.327 82.225C675.894 81.9083 676.344 81.4417 676.677 80.825C677.01 80.2083 677.177 79.4583 677.177 78.575C677.177 77.2583 676.827 76.25 676.127 75.55C675.444 74.8333 674.602 74.475 673.602 74.475C672.602 74.475 671.76 74.8333 671.077 75.55C670.41 76.25 670.077 77.2583 670.077 78.575C670.077 79.8917 670.402 80.9083 671.052 81.625C671.719 82.325 672.552 82.675 673.552 82.675ZM687.419 74.525V81.225C687.419 81.6917 687.528 82.0333 687.744 82.25C687.978 82.45 688.361 82.55 688.894 82.55H690.519V85.5H688.319C685.369 85.5 683.894 84.0667 683.894 81.2V74.525H682.244V71.65H683.894V68.225H687.419V71.65H690.519V74.525H687.419ZM705.912 78.275C705.912 78.775 705.879 79.225 705.812 79.625H695.687C695.77 80.625 696.12 81.4083 696.737 81.975C697.354 82.5417 698.112 82.825 699.012 82.825C700.312 82.825 701.237 82.2667 701.787 81.15H705.562C705.162 82.4833 704.395 83.5833 703.262 84.45C702.129 85.3 700.737 85.725 699.087 85.725C697.754 85.725 696.554 85.4333 695.487 84.85C694.437 84.25 693.612 83.4083 693.012 82.325C692.429 81.2417 692.137 79.9917 692.137 78.575C692.137 77.1417 692.429 75.8833 693.012 74.8C693.595 73.7167 694.412 72.8833 695.462 72.3C696.512 71.7167 697.72 71.425 699.087 71.425C700.404 71.425 701.579 71.7083 702.612 72.275C703.662 72.8417 704.47 73.65 705.037 74.7C705.62 75.7333 705.912 76.925 705.912 78.275ZM702.287 77.275C702.27 76.375 701.945 75.6583 701.312 75.125C700.679 74.575 699.904 74.3 698.987 74.3C698.12 74.3 697.387 74.5667 696.787 75.1C696.204 75.6167 695.845 76.3417 695.712 77.275H702.287ZM707.567 78.575C707.567 77.1417 707.858 75.8917 708.442 74.825C709.025 73.7417 709.833 72.9083 710.867 72.325C711.9 71.725 713.083 71.425 714.417 71.425C716.133 71.425 717.55 71.8583 718.667 72.725C719.8 73.575 720.558 74.775 720.942 76.325H717.167C716.967 75.725 716.625 75.2583 716.142 74.925C715.675 74.575 715.092 74.4 714.392 74.4C713.392 74.4 712.6 74.7667 712.017 75.5C711.433 76.2167 711.142 77.2417 711.142 78.575C711.142 79.8917 711.433 80.9167 712.017 81.65C712.6 82.3667 713.392 82.725 714.392 82.725C715.808 82.725 716.733 82.0917 717.167 80.825H720.942C720.558 82.325 719.8 83.5167 718.667 84.4C717.533 85.2833 716.117 85.725 714.417 85.725C713.083 85.725 711.9 85.4333 710.867 84.85C709.833 84.25 709.025 83.4167 708.442 82.35C707.858 81.2667 707.567 80.0083 707.567 78.575ZM727.581 74.525V81.225C727.581 81.6917 727.689 82.0333 727.906 82.25C728.139 82.45 728.522 82.55 729.056 82.55H730.681V85.5H728.481C725.531 85.5 724.056 84.0667 724.056 81.2V74.525H722.406V71.65H724.056V68.225H727.581V71.65H730.681V74.525H727.581ZM734.973 70C734.356 70 733.84 69.8083 733.423 69.425C733.023 69.025 732.823 68.5333 732.823 67.95C732.823 67.3667 733.023 66.8833 733.423 66.5C733.84 66.1 734.356 65.9 734.973 65.9C735.59 65.9 736.098 66.1 736.498 66.5C736.915 66.8833 737.123 67.3667 737.123 67.95C737.123 68.5333 736.915 69.025 736.498 69.425C736.098 69.8083 735.59 70 734.973 70ZM736.698 71.65V85.5H733.198V71.65H736.698ZM746.306 85.725C744.973 85.725 743.773 85.4333 742.706 84.85C741.639 84.25 740.798 83.4083 740.181 82.325C739.581 81.2417 739.281 79.9917 739.281 78.575C739.281 77.1583 739.589 75.9083 740.206 74.825C740.839 73.7417 741.698 72.9083 742.781 72.325C743.864 71.725 745.073 71.425 746.406 71.425C747.739 71.425 748.948 71.725 750.031 72.325C751.114 72.9083 751.964 73.7417 752.581 74.825C753.214 75.9083 753.531 77.1583 753.531 78.575C753.531 79.9917 753.206 81.2417 752.556 82.325C751.923 83.4083 751.056 84.25 749.956 84.85C748.873 85.4333 747.656 85.725 746.306 85.725ZM746.306 82.675C746.939 82.675 747.531 82.525 748.081 82.225C748.648 81.9083 749.098 81.4417 749.431 80.825C749.764 80.2083 749.931 79.4583 749.931 78.575C749.931 77.2583 749.581 76.25 748.881 75.55C748.198 74.8333 747.356 74.475 746.356 74.475C745.356 74.475 744.514 74.8333 743.831 75.55C743.164 76.25 742.831 77.2583 742.831 78.575C742.831 79.8917 743.156 80.9083 743.806 81.625C744.473 82.325 745.306 82.675 746.306 82.675ZM763.773 71.45C765.423 71.45 766.757 71.975 767.773 73.025C768.79 74.0583 769.298 75.5083 769.298 77.375V85.5H765.798V77.85C765.798 76.75 765.523 75.9083 764.973 75.325C764.423 74.725 763.673 74.425 762.723 74.425C761.757 74.425 760.99 74.725 760.423 75.325C759.873 75.9083 759.598 76.75 759.598 77.85V85.5H756.098V71.65H759.598V73.375C760.065 72.775 760.657 72.3083 761.373 71.975C762.107 71.625 762.907 71.45 763.773 71.45Z" fill="#242424"/>
<path d="M521.173 119.64C519.88 119.64 518.687 119.34 517.593 118.74C516.513 118.127 515.653 117.28 515.013 116.2C514.387 115.107 514.073 113.88 514.073 112.52C514.073 111.16 514.387 109.94 515.013 108.86C515.653 107.78 516.513 106.94 517.593 106.34C518.687 105.727 519.88 105.42 521.173 105.42C522.48 105.42 523.673 105.727 524.753 106.34C525.847 106.94 526.707 107.78 527.333 108.86C527.96 109.94 528.273 111.16 528.273 112.52C528.273 113.88 527.96 115.107 527.333 116.2C526.707 117.28 525.847 118.127 524.753 118.74C523.673 119.34 522.48 119.64 521.173 119.64ZM521.173 117.66C522.093 117.66 522.913 117.453 523.633 117.04C524.353 116.613 524.913 116.013 525.313 115.24C525.727 114.453 525.933 113.547 525.933 112.52C525.933 111.493 525.727 110.593 525.313 109.82C524.913 109.047 524.353 108.453 523.633 108.04C522.913 107.627 522.093 107.42 521.173 107.42C520.253 107.42 519.433 107.627 518.713 108.04C517.993 108.453 517.427 109.047 517.013 109.82C516.613 110.593 516.413 111.493 516.413 112.52C516.413 113.547 516.613 114.453 517.013 115.24C517.427 116.013 517.993 116.613 518.713 117.04C519.433 117.453 520.253 117.66 521.173 117.66ZM534.777 117.46L537.897 108.48H540.317L536.117 119.5H533.397L529.217 108.48H531.657L534.777 117.46ZM552.14 113.72C552.14 114.133 552.114 114.507 552.06 114.84H543.64C543.707 115.72 544.034 116.427 544.62 116.96C545.207 117.493 545.927 117.76 546.78 117.76C548.007 117.76 548.874 117.247 549.38 116.22H551.84C551.507 117.233 550.9 118.067 550.02 118.72C549.154 119.36 548.074 119.68 546.78 119.68C545.727 119.68 544.78 119.447 543.94 118.98C543.114 118.5 542.46 117.833 541.98 116.98C541.514 116.113 541.28 115.113 541.28 113.98C541.28 112.847 541.507 111.853 541.96 111C542.427 110.133 543.074 109.467 543.9 109C544.74 108.533 545.7 108.3 546.78 108.3C547.82 108.3 548.747 108.527 549.56 108.98C550.374 109.433 551.007 110.073 551.46 110.9C551.914 111.713 552.14 112.653 552.14 113.72ZM549.76 113C549.747 112.16 549.447 111.487 548.86 110.98C548.274 110.473 547.547 110.22 546.68 110.22C545.894 110.22 545.22 110.473 544.66 110.98C544.1 111.473 543.767 112.147 543.66 113H549.76ZM556.664 110.08C556.997 109.52 557.437 109.087 557.984 108.78C558.544 108.46 559.204 108.3 559.964 108.3V110.66H559.384C558.491 110.66 557.811 110.887 557.344 111.34C556.891 111.793 556.664 112.58 556.664 113.7V119.5H554.384V108.48H556.664V110.08ZM568.215 116.4C569.495 115.293 570.502 114.387 571.235 113.68C571.982 112.96 572.602 112.213 573.095 111.44C573.589 110.667 573.835 109.893 573.835 109.12C573.835 108.32 573.642 107.693 573.255 107.24C572.882 106.787 572.289 106.56 571.475 106.56C570.689 106.56 570.075 106.813 569.635 107.32C569.209 107.813 568.982 108.48 568.955 109.32H566.755C566.795 107.8 567.249 106.64 568.115 105.84C568.995 105.027 570.109 104.62 571.455 104.62C572.909 104.62 574.042 105.02 574.855 105.82C575.682 106.62 576.095 107.687 576.095 109.02C576.095 109.98 575.849 110.907 575.355 111.8C574.875 112.68 574.295 113.473 573.615 114.18C572.949 114.873 572.095 115.68 571.055 116.6L570.155 117.4H576.495V119.3H566.775V117.64L568.215 116.4ZM593.914 108.48L587.153 124.68H584.793L587.034 119.32L582.693 108.48H585.233L588.334 116.88L591.553 108.48H593.914ZM605.734 113.72C605.734 114.133 605.707 114.507 605.654 114.84H597.234C597.301 115.72 597.627 116.427 598.214 116.96C598.801 117.493 599.521 117.76 600.374 117.76C601.601 117.76 602.467 117.247 602.974 116.22H605.434C605.101 117.233 604.494 118.067 603.614 118.72C602.747 119.36 601.667 119.68 600.374 119.68C599.321 119.68 598.374 119.447 597.534 118.98C596.707 118.5 596.054 117.833 595.574 116.98C595.107 116.113 594.874 115.113 594.874 113.98C594.874 112.847 595.101 111.853 595.554 111C596.021 110.133 596.667 109.467 597.494 109C598.334 108.533 599.294 108.3 600.374 108.3C601.414 108.3 602.341 108.527 603.154 108.98C603.967 109.433 604.601 110.073 605.054 110.9C605.507 111.713 605.734 112.653 605.734 113.72ZM603.354 113C603.341 112.16 603.041 111.487 602.454 110.98C601.867 110.473 601.141 110.22 600.274 110.22C599.487 110.22 598.814 110.473 598.254 110.98C597.694 111.473 597.361 112.147 597.254 113H603.354ZM607.218 113.94C607.218 112.833 607.445 111.853 607.898 111C608.365 110.147 608.991 109.487 609.778 109.02C610.578 108.54 611.458 108.3 612.418 108.3C613.285 108.3 614.038 108.473 614.678 108.82C615.331 109.153 615.851 109.573 616.238 110.08V108.48H618.538V119.5H616.238V117.86C615.851 118.38 615.325 118.813 614.658 119.16C613.991 119.507 613.231 119.68 612.378 119.68C611.431 119.68 610.565 119.44 609.778 118.96C608.991 118.467 608.365 117.787 607.898 116.92C607.445 116.04 607.218 115.047 607.218 113.94ZM616.238 113.98C616.238 113.22 616.078 112.56 615.758 112C615.451 111.44 615.045 111.013 614.538 110.72C614.031 110.427 613.485 110.28 612.898 110.28C612.311 110.28 611.765 110.427 611.258 110.72C610.751 111 610.338 111.42 610.018 111.98C609.711 112.527 609.558 113.18 609.558 113.94C609.558 114.7 609.711 115.367 610.018 115.94C610.338 116.513 610.751 116.953 611.258 117.26C611.778 117.553 612.325 117.7 612.898 117.7C613.485 117.7 614.031 117.553 614.538 117.26C615.045 116.967 615.451 116.54 615.758 115.98C616.078 115.407 616.238 114.74 616.238 113.98ZM623.813 110.08C624.146 109.52 624.586 109.087 625.133 108.78C625.693 108.46 626.353 108.3 627.113 108.3V110.66H626.533C625.639 110.66 624.959 110.887 624.493 111.34C624.039 111.793 623.813 112.58 623.813 113.7V119.5H621.533V108.48H623.813V110.08ZM633.208 119.68C632.342 119.68 631.562 119.527 630.868 119.22C630.188 118.9 629.648 118.473 629.248 117.94C628.848 117.393 628.635 116.787 628.608 116.12H630.968C631.008 116.587 631.228 116.98 631.628 117.3C632.042 117.607 632.555 117.76 633.168 117.76C633.808 117.76 634.302 117.64 634.648 117.4C635.008 117.147 635.188 116.827 635.188 116.44C635.188 116.027 634.988 115.72 634.588 115.52C634.202 115.32 633.582 115.1 632.728 114.86C631.902 114.633 631.228 114.413 630.708 114.2C630.188 113.987 629.735 113.66 629.348 113.22C628.975 112.78 628.788 112.2 628.788 111.48C628.788 110.893 628.962 110.36 629.308 109.88C629.655 109.387 630.148 109 630.788 108.72C631.442 108.44 632.188 108.3 633.028 108.3C634.282 108.3 635.288 108.62 636.048 109.26C636.822 109.887 637.235 110.747 637.288 111.84H635.008C634.968 111.347 634.768 110.953 634.408 110.66C634.048 110.367 633.562 110.22 632.948 110.22C632.348 110.22 631.888 110.333 631.568 110.56C631.248 110.787 631.088 111.087 631.088 111.46C631.088 111.753 631.195 112 631.408 112.2C631.622 112.4 631.882 112.56 632.188 112.68C632.495 112.787 632.948 112.927 633.548 113.1C634.348 113.313 635.002 113.533 635.508 113.76C636.028 113.973 636.475 114.293 636.848 114.72C637.222 115.147 637.415 115.713 637.428 116.42C637.428 117.047 637.255 117.607 636.908 118.1C636.562 118.593 636.068 118.98 635.428 119.26C634.802 119.54 634.062 119.68 633.208 119.68Z" fill="#898989"/>
<g clip-path="url(#clip2_117_610)">
<path d="M882.015 93.6019V66.2796C882.015 65.3049 881.224 64.5146 880.25 64.5146H832.962C831.987 64.5146 831.197 65.3049 831.197 66.2796V95.78C830.345 95.904 829.513 96.2346 828.777 96.7812C826.455 98.4273 825.906 102.111 827.851 104.383L835.801 114.02C840.722 119.78 845.949 120.485 853.72 120.485C860.389 120.485 863.371 120.515 869.183 119.19L874.843 117.837C875.76 119.118 877.217 119.949 878.855 119.949H881.643C884.413 119.949 886.667 117.574 886.667 114.656V98.8784C886.667 96.092 884.612 93.8031 882.015 93.6019ZM874.081 97.2326L871.73 96.0382C867.863 94.0865 863.393 94.0142 859.465 95.8403C858.393 96.2618 856.056 97.6759 854.844 97.6286H846.683C843.977 97.6286 841.774 99.8307 841.774 102.538V103.825C841.759 103.809 841.743 103.794 841.728 103.777L835.901 97.4519C835.548 97.0692 835.152 96.7489 834.727 96.4919V78.981H849.171V85.451C849.171 86.4257 849.961 87.2159 850.936 87.2159H862.073C863.048 87.2159 863.838 86.4257 863.838 85.451V78.981H878.485V93.6018C876.422 93.7611 874.703 95.2364 874.081 97.2326ZM852.701 78.981H860.308V83.686H852.701V78.981ZM878.485 75.451H863.838V68.0446H878.485V75.451H878.485ZM860.308 68.0446V75.4511H852.701V68.0446H860.308ZM849.171 68.0446V75.4511H834.727V68.0446H849.171ZM868.364 115.757C862.995 116.986 859.761 116.937 853.784 116.937C846.488 116.937 842.964 116.819 838.524 111.774L830.574 102.136C829.191 100.336 831.696 98.2101 833.305 99.8435L839.132 106.169C840.672 107.794 842.61 108.688 844.999 108.741H861.156C862.13 108.741 862.921 107.951 862.921 106.976C862.921 106.001 862.13 105.211 861.156 105.211H845.304V102.537C845.304 101.777 845.923 101.158 846.683 101.158H854.844C856.682 101.29 859.336 99.7549 860.953 99.041C863.895 97.6733 867.243 97.7274 870.135 99.1872L873.831 101.065V114.449L868.364 115.757ZM883.137 114.656C883.137 115.628 882.467 116.418 881.643 116.418H878.855C878.031 116.418 877.361 115.628 877.361 114.656V98.8784C877.361 97.9066 878.031 97.1159 878.855 97.1159H881.643C882.467 97.1159 883.137 97.9065 883.137 98.8784V114.656Z" fill="#242424"/>
</g>
<path d="M909.167 68.05V70.875H901.892V75.35H907.467V78.125H901.892V85.5H898.392V68.05H909.167ZM915.149 73.8C915.599 73.0667 916.182 72.4917 916.899 72.075C917.632 71.6583 918.465 71.45 919.399 71.45V75.125H918.474C917.374 75.125 916.54 75.3833 915.974 75.9C915.424 76.4167 915.149 77.3167 915.149 78.6V85.5H911.649V71.65H915.149V73.8ZM934.631 78.275C934.631 78.775 934.598 79.225 934.531 79.625H924.406C924.489 80.625 924.839 81.4083 925.456 81.975C926.073 82.5417 926.831 82.825 927.731 82.825C929.031 82.825 929.956 82.2667 930.506 81.15H934.281C933.881 82.4833 933.114 83.5833 931.981 84.45C930.848 85.3 929.456 85.725 927.806 85.725C926.473 85.725 925.273 85.4333 924.206 84.85C923.156 84.25 922.331 83.4083 921.731 82.325C921.148 81.2417 920.856 79.9917 920.856 78.575C920.856 77.1417 921.148 75.8833 921.731 74.8C922.314 73.7167 923.131 72.8833 924.181 72.3C925.231 71.7167 926.439 71.425 927.806 71.425C929.123 71.425 930.298 71.7083 931.331 72.275C932.381 72.8417 933.189 73.65 933.756 74.7C934.339 75.7333 934.631 76.925 934.631 78.275ZM931.006 77.275C930.989 76.375 930.664 75.6583 930.031 75.125C929.398 74.575 928.623 74.3 927.706 74.3C926.839 74.3 926.106 74.5667 925.506 75.1C924.923 75.6167 924.564 76.3417 924.431 77.275H931.006ZM950.061 78.275C950.061 78.775 950.027 79.225 949.961 79.625H939.836C939.919 80.625 940.269 81.4083 940.886 81.975C941.502 82.5417 942.261 82.825 943.161 82.825C944.461 82.825 945.386 82.2667 945.936 81.15H949.711C949.311 82.4833 948.544 83.5833 947.411 84.45C946.277 85.3 944.886 85.725 943.236 85.725C941.902 85.725 940.702 85.4333 939.636 84.85C938.586 84.25 937.761 83.4083 937.161 82.325C936.577 81.2417 936.286 79.9917 936.286 78.575C936.286 77.1417 936.577 75.8833 937.161 74.8C937.744 73.7167 938.561 72.8833 939.611 72.3C940.661 71.7167 941.869 71.425 943.236 71.425C944.552 71.425 945.727 71.7083 946.761 72.275C947.811 72.8417 948.619 73.65 949.186 74.7C949.769 75.7333 950.061 76.925 950.061 78.275ZM946.436 77.275C946.419 76.375 946.094 75.6583 945.461 75.125C944.827 74.575 944.052 74.3 943.136 74.3C942.269 74.3 941.536 74.5667 940.936 75.1C940.352 75.6167 939.994 76.3417 939.861 77.275H946.436ZM964.597 85.675C963.381 85.675 962.281 85.4667 961.297 85.05C960.331 84.6333 959.564 84.0333 958.997 83.25C958.431 82.4667 958.139 81.5417 958.122 80.475H961.872C961.922 81.1917 962.172 81.7583 962.622 82.175C963.089 82.5917 963.722 82.8 964.522 82.8C965.339 82.8 965.981 82.6083 966.447 82.225C966.914 81.825 967.147 81.3083 967.147 80.675C967.147 80.1583 966.989 79.7333 966.672 79.4C966.356 79.0667 965.956 78.8083 965.472 78.625C965.006 78.425 964.356 78.2083 963.522 77.975C962.389 77.6417 961.464 77.3167 960.747 77C960.047 76.6667 959.439 76.175 958.922 75.525C958.422 74.8583 958.172 73.975 958.172 72.875C958.172 71.8417 958.431 70.9417 958.947 70.175C959.464 69.4083 960.189 68.825 961.122 68.425C962.056 68.0083 963.122 67.8 964.322 67.8C966.122 67.8 967.581 68.2417 968.697 69.125C969.831 69.9917 970.456 71.2083 970.572 72.775H966.722C966.689 72.175 966.431 71.6833 965.947 71.3C965.481 70.9 964.856 70.7 964.072 70.7C963.389 70.7 962.839 70.875 962.422 71.225C962.022 71.575 961.822 72.0833 961.822 72.75C961.822 73.2167 961.972 73.6083 962.272 73.925C962.589 74.225 962.972 74.475 963.422 74.675C963.889 74.8583 964.539 75.075 965.372 75.325C966.506 75.6583 967.431 75.9917 968.147 76.325C968.864 76.6583 969.481 77.1583 969.997 77.825C970.514 78.4917 970.772 79.3667 970.772 80.45C970.772 81.3833 970.531 82.25 970.047 83.05C969.564 83.85 968.856 84.4917 967.922 84.975C966.989 85.4417 965.881 85.675 964.597 85.675ZM981.607 71.45C982.657 71.45 983.59 71.6833 984.407 72.15C985.223 72.6 985.857 73.275 986.307 74.175C986.773 75.0583 987.007 76.125 987.007 77.375V85.5H983.507V77.85C983.507 76.75 983.232 75.9083 982.682 75.325C982.132 74.725 981.382 74.425 980.432 74.425C979.465 74.425 978.698 74.725 978.132 75.325C977.582 75.9083 977.307 76.75 977.307 77.85V85.5H973.807V67H977.307V73.375C977.757 72.775 978.357 72.3083 979.107 71.975C979.857 71.625 980.69 71.45 981.607 71.45ZM992.11 70C991.493 70 990.977 69.8083 990.56 69.425C990.16 69.025 989.96 68.5333 989.96 67.95C989.96 67.3667 990.16 66.8833 990.56 66.5C990.977 66.1 991.493 65.9 992.11 65.9C992.727 65.9 993.235 66.1 993.635 66.5C994.052 66.8833 994.26 67.3667 994.26 67.95C994.26 68.5333 994.052 69.025 993.635 69.425C993.235 69.8083 992.727 70 992.11 70ZM993.835 71.65V85.5H990.335V71.65H993.835ZM1000.79 73.65C1001.24 73.0167 1001.86 72.4917 1002.64 72.075C1003.44 71.6417 1004.35 71.425 1005.37 71.425C1006.55 71.425 1007.62 71.7167 1008.57 72.3C1009.53 72.8833 1010.29 73.7167 1010.84 74.8C1011.41 75.8667 1011.69 77.1083 1011.69 78.525C1011.69 79.9417 1011.41 81.2 1010.84 82.3C1010.29 83.3833 1009.53 84.225 1008.57 84.825C1007.62 85.425 1006.55 85.725 1005.37 85.725C1004.35 85.725 1003.45 85.5167 1002.67 85.1C1001.9 84.6833 1001.28 84.1583 1000.79 83.525V92.1H997.293V71.65H1000.79V73.65ZM1008.12 78.525C1008.12 77.6917 1007.94 76.975 1007.59 76.375C1007.26 75.7583 1006.81 75.2917 1006.24 74.975C1005.69 74.6583 1005.09 74.5 1004.44 74.5C1003.81 74.5 1003.21 74.6667 1002.64 75C1002.09 75.3167 1001.64 75.7833 1001.29 76.4C1000.96 77.0167 1000.79 77.7417 1000.79 78.575C1000.79 79.4083 1000.96 80.1333 1001.29 80.75C1001.64 81.3667 1002.09 81.8417 1002.64 82.175C1003.21 82.4917 1003.81 82.65 1004.44 82.65C1005.09 82.65 1005.69 82.4833 1006.24 82.15C1006.81 81.8167 1007.26 81.3417 1007.59 80.725C1007.94 80.1083 1008.12 79.375 1008.12 78.525ZM1017.74 73.65C1018.19 73.0167 1018.8 72.4917 1019.59 72.075C1020.39 71.6417 1021.29 71.425 1022.31 71.425C1023.49 71.425 1024.56 71.7167 1025.51 72.3C1026.48 72.8833 1027.24 73.7167 1027.79 74.8C1028.35 75.8667 1028.64 77.1083 1028.64 78.525C1028.64 79.9417 1028.35 81.2 1027.79 82.3C1027.24 83.3833 1026.48 84.225 1025.51 84.825C1024.56 85.425 1023.49 85.725 1022.31 85.725C1021.29 85.725 1020.39 85.5167 1019.61 85.1C1018.84 84.6833 1018.22 84.1583 1017.74 83.525V92.1H1014.24V71.65H1017.74V73.65ZM1025.06 78.525C1025.06 77.6917 1024.89 76.975 1024.54 76.375C1024.2 75.7583 1023.75 75.2917 1023.19 74.975C1022.64 74.6583 1022.04 74.5 1021.39 74.5C1020.75 74.5 1020.15 74.6667 1019.59 75C1019.04 75.3167 1018.59 75.7833 1018.24 76.4C1017.9 77.0167 1017.74 77.7417 1017.74 78.575C1017.74 79.4083 1017.9 80.1333 1018.24 80.75C1018.59 81.3667 1019.04 81.8417 1019.59 82.175C1020.15 82.4917 1020.75 82.65 1021.39 82.65C1022.04 82.65 1022.64 82.4833 1023.19 82.15C1023.75 81.8167 1024.2 81.3417 1024.54 80.725C1024.89 80.1083 1025.06 79.375 1025.06 78.525ZM1032.95 70C1032.34 70 1031.82 69.8083 1031.4 69.425C1031 69.025 1030.8 68.5333 1030.8 67.95C1030.8 67.3667 1031 66.8833 1031.4 66.5C1031.82 66.1 1032.34 65.9 1032.95 65.9C1033.57 65.9 1034.08 66.1 1034.48 66.5C1034.9 66.8833 1035.1 67.3667 1035.1 67.95C1035.1 68.5333 1034.9 69.025 1034.48 69.425C1034.08 69.8083 1033.57 70 1032.95 70ZM1034.68 71.65V85.5H1031.18V71.65H1034.68ZM1045.81 71.45C1047.46 71.45 1048.8 71.975 1049.81 73.025C1050.83 74.0583 1051.34 75.5083 1051.34 77.375V85.5H1047.84V77.85C1047.84 76.75 1047.56 75.9083 1047.01 75.325C1046.46 74.725 1045.71 74.425 1044.76 74.425C1043.8 74.425 1043.03 74.725 1042.46 75.325C1041.91 75.9083 1041.64 76.75 1041.64 77.85V85.5H1038.14V71.65H1041.64V73.375C1042.1 72.775 1042.7 72.3083 1043.41 71.975C1044.15 71.625 1044.95 71.45 1045.81 71.45ZM1060.09 71.425C1061.12 71.425 1062.03 71.6333 1062.82 72.05C1063.6 72.45 1064.22 72.975 1064.67 73.625V71.65H1068.19V85.6C1068.19 86.8833 1067.93 88.025 1067.42 89.025C1066.9 90.0417 1066.12 90.8417 1065.09 91.425C1064.06 92.025 1062.81 92.325 1061.34 92.325C1059.37 92.325 1057.76 91.8667 1056.49 90.95C1055.24 90.0333 1054.53 88.7833 1054.37 87.2H1057.84C1058.02 87.8333 1058.42 88.3333 1059.02 88.7C1059.63 89.0833 1060.37 89.275 1061.24 89.275C1062.26 89.275 1063.08 88.9667 1063.72 88.35C1064.35 87.75 1064.67 86.8333 1064.67 85.6V83.45C1064.22 84.1 1063.59 84.6417 1062.79 85.075C1062.01 85.5083 1061.11 85.725 1060.09 85.725C1058.92 85.725 1057.86 85.425 1056.89 84.825C1055.92 84.225 1055.16 83.3833 1054.59 82.3C1054.04 81.2 1053.77 79.9417 1053.77 78.525C1053.77 77.125 1054.04 75.8833 1054.59 74.8C1055.16 73.7167 1055.92 72.8833 1056.87 72.3C1057.83 71.7167 1058.91 71.425 1060.09 71.425ZM1064.67 78.575C1064.67 77.725 1064.5 77 1064.17 76.4C1063.83 75.7833 1063.38 75.3167 1062.82 75C1062.25 74.6667 1061.64 74.5 1060.99 74.5C1060.34 74.5 1059.74 74.6583 1059.19 74.975C1058.64 75.2917 1058.19 75.7583 1057.84 76.375C1057.51 76.975 1057.34 77.6917 1057.34 78.525C1057.34 79.3583 1057.51 80.0917 1057.84 80.725C1058.19 81.3417 1058.64 81.8167 1059.19 82.15C1059.76 82.4833 1060.36 82.65 1060.99 82.65C1061.64 82.65 1062.25 82.4917 1062.82 82.175C1063.38 81.8417 1063.83 81.375 1064.17 80.775C1064.5 80.1583 1064.67 79.425 1064.67 78.575Z" fill="#242424"/>
<path d="M904.507 119.64C903.213 119.64 902.02 119.34 900.927 118.74C899.847 118.127 898.987 117.28 898.347 116.2C897.72 115.107 897.407 113.88 897.407 112.52C897.407 111.16 897.72 109.94 898.347 108.86C898.987 107.78 899.847 106.94 900.927 106.34C902.02 105.727 903.213 105.42 904.507 105.42C905.813 105.42 907.007 105.727 908.087 106.34C909.18 106.94 910.04 107.78 910.667 108.86C911.293 109.94 911.607 111.16 911.607 112.52C911.607 113.88 911.293 115.107 910.667 116.2C910.04 117.28 909.18 118.127 908.087 118.74C907.007 119.34 905.813 119.64 904.507 119.64ZM904.507 117.66C905.427 117.66 906.247 117.453 906.967 117.04C907.687 116.613 908.247 116.013 908.647 115.24C909.06 114.453 909.267 113.547 909.267 112.52C909.267 111.493 909.06 110.593 908.647 109.82C908.247 109.047 907.687 108.453 906.967 108.04C906.247 107.627 905.427 107.42 904.507 107.42C903.587 107.42 902.767 107.627 902.047 108.04C901.327 108.453 900.76 109.047 900.347 109.82C899.947 110.593 899.747 111.493 899.747 112.52C899.747 113.547 899.947 114.453 900.347 115.24C900.76 116.013 901.327 116.613 902.047 117.04C902.767 117.453 903.587 117.66 904.507 117.66ZM916.13 110.08C916.464 109.52 916.904 109.087 917.45 108.78C918.01 108.46 918.67 108.3 919.43 108.3V110.66H918.85C917.957 110.66 917.277 110.887 916.81 111.34C916.357 111.793 916.13 112.58 916.13 113.7V119.5H913.85V108.48H916.13V110.08ZM920.766 113.94C920.766 112.833 920.993 111.853 921.446 111C921.913 110.147 922.539 109.487 923.326 109.02C924.126 108.54 925.013 108.3 925.986 108.3C926.706 108.3 927.413 108.46 928.106 108.78C928.813 109.087 929.373 109.5 929.786 110.02V104.7H932.086V119.5H929.786V117.84C929.413 118.373 928.893 118.813 928.226 119.16C927.573 119.507 926.819 119.68 925.966 119.68C925.006 119.68 924.126 119.44 923.326 118.96C922.539 118.467 921.913 117.787 921.446 116.92C920.993 116.04 920.766 115.047 920.766 113.94ZM929.786 113.98C929.786 113.22 929.626 112.56 929.306 112C928.999 111.44 928.593 111.013 928.086 110.72C927.579 110.427 927.033 110.28 926.446 110.28C925.859 110.28 925.313 110.427 924.806 110.72C924.299 111 923.886 111.42 923.566 111.98C923.259 112.527 923.106 113.18 923.106 113.94C923.106 114.7 923.259 115.367 923.566 115.94C923.886 116.513 924.299 116.953 924.806 117.26C925.326 117.553 925.873 117.7 926.446 117.7C927.033 117.7 927.579 117.553 928.086 117.26C928.593 116.967 928.999 116.54 929.306 115.98C929.626 115.407 929.786 114.74 929.786 113.98ZM945.181 113.72C945.181 114.133 945.154 114.507 945.101 114.84H936.681C936.747 115.72 937.074 116.427 937.661 116.96C938.247 117.493 938.967 117.76 939.821 117.76C941.047 117.76 941.914 117.247 942.421 116.22H944.881C944.547 117.233 943.941 118.067 943.061 118.72C942.194 119.36 941.114 119.68 939.821 119.68C938.767 119.68 937.821 119.447 936.981 118.98C936.154 118.5 935.501 117.833 935.021 116.98C934.554 116.113 934.321 115.113 934.321 113.98C934.321 112.847 934.547 111.853 935.001 111C935.467 110.133 936.114 109.467 936.941 109C937.781 108.533 938.741 108.3 939.821 108.3C940.861 108.3 941.787 108.527 942.601 108.98C943.414 109.433 944.047 110.073 944.501 110.9C944.954 111.713 945.181 112.653 945.181 113.72ZM942.801 113C942.787 112.16 942.487 111.487 941.901 110.98C941.314 110.473 940.587 110.22 939.721 110.22C938.934 110.22 938.261 110.473 937.701 110.98C937.141 111.473 936.807 112.147 936.701 113H942.801ZM949.704 110.08C950.038 109.52 950.478 109.087 951.025 108.78C951.584 108.46 952.244 108.3 953.004 108.3V110.66H952.424C951.531 110.66 950.851 110.887 950.384 111.34C949.931 111.793 949.704 112.58 949.704 113.7V119.5H947.424V108.48H949.704V110.08ZM965.076 119.68C964.036 119.68 963.096 119.447 962.256 118.98C961.416 118.5 960.756 117.833 960.276 116.98C959.796 116.113 959.556 115.113 959.556 113.98C959.556 112.86 959.802 111.867 960.296 111C960.789 110.133 961.462 109.467 962.316 109C963.169 108.533 964.122 108.3 965.176 108.3C966.229 108.3 967.182 108.533 968.036 109C968.889 109.467 969.562 110.133 970.056 111C970.549 111.867 970.796 112.86 970.796 113.98C970.796 115.1 970.542 116.093 970.036 116.96C969.529 117.827 968.836 118.5 967.956 118.98C967.089 119.447 966.129 119.68 965.076 119.68ZM965.076 117.7C965.662 117.7 966.209 117.56 966.716 117.28C967.236 117 967.656 116.58 967.976 116.02C968.296 115.46 968.456 114.78 968.456 113.98C968.456 113.18 968.302 112.507 967.996 111.96C967.689 111.4 967.282 110.98 966.776 110.7C966.269 110.42 965.722 110.28 965.136 110.28C964.549 110.28 964.002 110.42 963.496 110.7C963.002 110.98 962.609 111.4 962.316 111.96C962.022 112.507 961.876 113.18 961.876 113.98C961.876 115.167 962.176 116.087 962.776 116.74C963.389 117.38 964.156 117.7 965.076 117.7ZM977.309 117.46L980.43 108.48H982.849L978.649 119.5H975.929L971.749 108.48H974.189L977.309 117.46ZM994.673 113.72C994.673 114.133 994.646 114.507 994.593 114.84H986.173C986.24 115.72 986.566 116.427 987.153 116.96C987.74 117.493 988.46 117.76 989.313 117.76C990.54 117.76 991.406 117.247 991.913 116.22H994.373C994.04 117.233 993.433 118.067 992.553 118.72C991.686 119.36 990.606 119.68 989.313 119.68C988.26 119.68 987.313 119.447 986.473 118.98C985.646 118.5 984.993 117.833 984.513 116.98C984.046 116.113 983.813 115.113 983.813 113.98C983.813 112.847 984.04 111.853 984.493 111C984.96 110.133 985.606 109.467 986.433 109C987.273 108.533 988.233 108.3 989.313 108.3C990.353 108.3 991.28 108.527 992.093 108.98C992.906 109.433 993.54 110.073 993.993 110.9C994.446 111.713 994.673 112.653 994.673 113.72ZM992.293 113C992.28 112.16 991.98 111.487 991.393 110.98C990.806 110.473 990.08 110.22 989.213 110.22C988.426 110.22 987.753 110.473 987.193 110.98C986.633 111.473 986.3 112.147 986.193 113H992.293ZM999.197 110.08C999.53 109.52 999.97 109.087 1000.52 108.78C1001.08 108.46 1001.74 108.3 1002.5 108.3V110.66H1001.92C1001.02 110.66 1000.34 110.887 999.877 111.34C999.423 111.793 999.197 112.58 999.197 113.7V119.5H996.917V108.48H999.197V110.08ZM1009.19 107V104.92H1013.35V119.5H1011.05V107H1009.19ZM1025.88 106.88H1019.18V110.86C1019.46 110.487 1019.87 110.173 1020.42 109.92C1020.98 109.667 1021.57 109.54 1022.2 109.54C1023.32 109.54 1024.23 109.78 1024.92 110.26C1025.63 110.74 1026.13 111.347 1026.42 112.08C1026.73 112.813 1026.88 113.587 1026.88 114.4C1026.88 115.387 1026.69 116.267 1026.3 117.04C1025.93 117.8 1025.36 118.4 1024.6 118.84C1023.85 119.28 1022.93 119.5 1021.84 119.5C1020.39 119.5 1019.22 119.14 1018.34 118.42C1017.46 117.7 1016.93 116.747 1016.76 115.56H1018.98C1019.13 116.187 1019.45 116.687 1019.96 117.06C1020.47 117.42 1021.1 117.6 1021.86 117.6C1022.81 117.6 1023.51 117.313 1023.98 116.74C1024.46 116.167 1024.7 115.407 1024.7 114.46C1024.7 113.5 1024.46 112.767 1023.98 112.26C1023.5 111.74 1022.79 111.48 1021.86 111.48C1021.21 111.48 1020.65 111.647 1020.2 111.98C1019.76 112.3 1019.44 112.74 1019.24 113.3H1017.08V104.88H1025.88V106.88ZM1029.25 112.02C1029.25 109.713 1029.64 107.913 1030.41 106.62C1031.2 105.313 1032.55 104.66 1034.45 104.66C1036.36 104.66 1037.7 105.313 1038.47 106.62C1039.26 107.913 1039.65 109.713 1039.65 112.02C1039.65 114.353 1039.26 116.18 1038.47 117.5C1037.7 118.807 1036.36 119.46 1034.45 119.46C1032.55 119.46 1031.2 118.807 1030.41 117.5C1029.64 116.18 1029.25 114.353 1029.25 112.02ZM1037.41 112.02C1037.41 110.94 1037.34 110.027 1037.19 109.28C1037.06 108.533 1036.78 107.927 1036.35 107.46C1035.93 106.98 1035.29 106.74 1034.45 106.74C1033.61 106.74 1032.98 106.98 1032.55 107.46C1032.13 107.927 1031.84 108.533 1031.69 109.28C1031.56 110.027 1031.49 110.94 1031.49 112.02C1031.49 113.14 1031.56 114.08 1031.69 114.84C1031.83 115.6 1032.11 116.213 1032.53 116.68C1032.97 117.147 1033.61 117.38 1034.45 117.38C1035.29 117.38 1035.93 117.147 1036.35 116.68C1036.79 116.213 1037.08 115.6 1037.21 114.84C1037.35 114.08 1037.41 113.14 1037.41 112.02ZM1056.94 115.54C1056.94 116.207 1056.77 116.833 1056.44 117.42C1056.12 118.007 1055.64 118.5 1055 118.9C1054.37 119.3 1053.63 119.54 1052.76 119.62V121.24H1051.46V119.62C1050.21 119.5 1049.19 119.107 1048.42 118.44C1047.65 117.773 1047.26 116.893 1047.26 115.8H1049.7C1049.74 116.32 1049.91 116.753 1050.2 117.1C1050.49 117.433 1050.91 117.647 1051.46 117.74V113.34C1050.57 113.113 1049.84 112.887 1049.28 112.66C1048.72 112.42 1048.24 112.047 1047.84 111.54C1047.45 111.033 1047.26 110.34 1047.26 109.46C1047.26 108.353 1047.65 107.44 1048.42 106.72C1049.19 105.987 1050.21 105.56 1051.46 105.44V103.82H1052.76V105.44C1053.93 105.547 1054.87 105.92 1055.58 106.56C1056.3 107.187 1056.71 108.053 1056.8 109.16H1054.36C1054.32 108.747 1054.16 108.38 1053.88 108.06C1053.6 107.727 1053.23 107.5 1052.76 107.38V111.7C1053.65 111.913 1054.38 112.14 1054.94 112.38C1055.5 112.607 1055.97 112.973 1056.36 113.48C1056.75 113.973 1056.94 114.66 1056.94 115.54ZM1049.58 109.34C1049.58 109.887 1049.74 110.313 1050.06 110.62C1050.39 110.927 1050.86 111.173 1051.46 111.36V107.32C1050.89 107.387 1050.43 107.593 1050.08 107.94C1049.75 108.287 1049.58 108.753 1049.58 109.34ZM1052.76 117.74C1053.35 117.647 1053.81 117.413 1054.14 117.04C1054.47 116.653 1054.64 116.193 1054.64 115.66C1054.64 115.127 1054.47 114.713 1054.14 114.42C1053.82 114.113 1053.36 113.867 1052.76 113.68V117.74Z" fill="#898989"/>
<g clip-path="url(#clip3_117_610)">
<path d="M1180.69 86.4628C1180.3 73.1825 1169.37 62.5 1156 62.5C1142.63 62.5 1131.7 73.1825 1131.31 86.4628L1129.53 88.2396V100.29L1131.29 102.054V110.265C1131.29 115.065 1135.2 118.971 1140 118.971H1142.19C1142.91 121.025 1144.88 122.5 1147.18 122.5H1150.71C1153.01 122.5 1154.97 121.022 1155.7 118.966C1155.8 118.968 1155.9 118.971 1156 118.971C1164.52 118.971 1171.65 112.898 1173.29 104.853H1177.91L1182.47 100.29V88.2396L1180.69 86.4628ZM1156 66.0294C1166.47 66.0294 1175.2 73.674 1176.88 83.6765H1173.29C1171.65 75.6313 1164.52 69.5588 1156 69.5588C1147.48 69.5588 1140.35 75.6313 1138.71 83.6765H1135.12C1136.8 73.674 1145.53 66.0294 1156 66.0294ZM1169.67 83.6765C1163.97 83.6594 1159.94 84.0068 1156.61 79.1506L1155 76.7926L1153.62 79.2907C1151.6 82.9306 1148.87 83.6765 1145.41 83.6765H1142.33C1143.9 77.5944 1149.43 73.0882 1156 73.0882C1162.57 73.0882 1168.1 77.5944 1169.67 83.6765ZM1138.35 101.324H1135.55L1133.06 98.8279V89.7015L1135.55 87.2059H1138.35V101.324ZM1134.82 110.265V104.853H1138.7C1139.37 108.144 1140.96 111.165 1143.31 113.592C1142.82 114.119 1142.43 114.747 1142.19 115.441H1140C1137.15 115.441 1134.82 113.119 1134.82 110.265ZM1150.71 118.971H1147.18C1146.2 118.971 1145.41 118.179 1145.41 117.206C1145.41 116.233 1146.2 115.441 1147.18 115.441H1150.71C1151.68 115.441 1152.47 116.233 1152.47 117.206C1152.47 118.179 1151.68 118.971 1150.71 118.971ZM1170.12 101.324C1170.12 109.108 1163.78 115.441 1156 115.441C1155.9 115.441 1155.8 115.439 1155.69 115.437C1154.97 113.385 1153 111.912 1150.71 111.912C1147.08 111.92 1147.14 111.894 1146.69 111.935C1143.62 109.25 1141.88 105.425 1141.88 101.324V87.2059H1145.41C1148.53 87.2059 1152.34 86.6909 1155.28 83.1076C1159.17 87.1786 1163.91 87.2059 1168.18 87.2059H1170.12V101.324ZM1178.94 98.8279L1176.45 101.324H1173.65V87.2059H1176.45L1178.94 89.7015V98.8279Z" fill="#242424"/>
</g>
<path d="M1198.43 81.55C1200.03 80.2167 1201.3 79.1083 1202.25 78.225C1203.2 77.325 1203.99 76.3917 1204.63 75.425C1205.26 74.4583 1205.58 73.5083 1205.58 72.575C1205.58 71.725 1205.38 71.0583 1204.98 70.575C1204.58 70.0917 1203.96 69.85 1203.13 69.85C1202.29 69.85 1201.65 70.1333 1201.2 70.7C1200.75 71.25 1200.52 72.0083 1200.5 72.975H1197.1C1197.17 70.975 1197.76 69.4583 1198.88 68.425C1200.01 67.3917 1201.44 66.875 1203.18 66.875C1205.08 66.875 1206.53 67.3833 1207.55 68.4C1208.57 69.4 1209.08 70.725 1209.08 72.375C1209.08 73.675 1208.73 74.9167 1208.03 76.1C1207.33 77.2833 1206.53 78.3167 1205.63 79.2C1204.73 80.0667 1203.55 81.1167 1202.1 82.35H1209.48V85.25H1197.13V82.65L1198.43 81.55ZM1211.53 81.95V79.2L1219.71 67.5H1223.78V78.9H1225.98V81.95H1223.78V85.5H1220.28V81.95H1211.53ZM1220.51 71.25L1215.38 78.9H1220.51V71.25ZM1243.94 61.825L1237.19 90.025H1233.77L1240.52 61.825H1243.94ZM1263.88 69.925L1257.23 85.5H1253.68L1260.38 70.325H1251.83V67.325H1263.88V69.925ZM1278.36 85.675C1277.14 85.675 1276.04 85.4667 1275.06 85.05C1274.09 84.6333 1273.33 84.0333 1272.76 83.25C1272.19 82.4667 1271.9 81.5417 1271.88 80.475H1275.63C1275.68 81.1917 1275.93 81.7583 1276.38 82.175C1276.85 82.5917 1277.48 82.8 1278.28 82.8C1279.1 82.8 1279.74 82.6083 1280.21 82.225C1280.68 81.825 1280.91 81.3083 1280.91 80.675C1280.91 80.1583 1280.75 79.7333 1280.43 79.4C1280.12 79.0667 1279.72 78.8083 1279.23 78.625C1278.77 78.425 1278.12 78.2083 1277.28 77.975C1276.15 77.6417 1275.23 77.3167 1274.51 77C1273.81 76.6667 1273.2 76.175 1272.68 75.525C1272.18 74.8583 1271.93 73.975 1271.93 72.875C1271.93 71.8417 1272.19 70.9417 1272.71 70.175C1273.23 69.4083 1273.95 68.825 1274.88 68.425C1275.82 68.0083 1276.88 67.8 1278.08 67.8C1279.88 67.8 1281.34 68.2417 1282.46 69.125C1283.59 69.9917 1284.22 71.2083 1284.33 72.775H1280.48C1280.45 72.175 1280.19 71.6833 1279.71 71.3C1279.24 70.9 1278.62 70.7 1277.83 70.7C1277.15 70.7 1276.6 70.875 1276.18 71.225C1275.78 71.575 1275.58 72.0833 1275.58 72.75C1275.58 73.2167 1275.73 73.6083 1276.03 73.925C1276.35 74.225 1276.73 74.475 1277.18 74.675C1277.65 74.8583 1278.3 75.075 1279.13 75.325C1280.27 75.6583 1281.19 75.9917 1281.91 76.325C1282.63 76.6583 1283.24 77.1583 1283.76 77.825C1284.28 78.4917 1284.53 79.3667 1284.53 80.45C1284.53 81.3833 1284.29 82.25 1283.81 83.05C1283.33 83.85 1282.62 84.4917 1281.68 84.975C1280.75 85.4417 1279.64 85.675 1278.36 85.675ZM1300.64 71.65V85.5H1297.12V83.75C1296.67 84.35 1296.08 84.825 1295.34 85.175C1294.63 85.5083 1293.84 85.675 1292.99 85.675C1291.91 85.675 1290.95 85.45 1290.12 85C1289.29 84.5333 1288.63 83.8583 1288.14 82.975C1287.68 82.075 1287.44 81.0083 1287.44 79.775V71.65H1290.94V79.275C1290.94 80.375 1291.22 81.225 1291.77 81.825C1292.32 82.4083 1293.07 82.7 1294.02 82.7C1294.99 82.7 1295.74 82.4083 1296.29 81.825C1296.84 81.225 1297.12 80.375 1297.12 79.275V71.65H1300.64ZM1307.6 73.65C1308.05 73.0167 1308.66 72.4917 1309.45 72.075C1310.25 71.6417 1311.16 71.425 1312.17 71.425C1313.36 71.425 1314.42 71.7167 1315.37 72.3C1316.34 72.8833 1317.1 73.7167 1317.65 74.8C1318.21 75.8667 1318.5 77.1083 1318.5 78.525C1318.5 79.9417 1318.21 81.2 1317.65 82.3C1317.1 83.3833 1316.34 84.225 1315.37 84.825C1314.42 85.425 1313.36 85.725 1312.17 85.725C1311.16 85.725 1310.26 85.5167 1309.47 85.1C1308.71 84.6833 1308.08 84.1583 1307.6 83.525V92.1H1304.1V71.65H1307.6V73.65ZM1314.92 78.525C1314.92 77.6917 1314.75 76.975 1314.4 76.375C1314.06 75.7583 1313.61 75.2917 1313.05 74.975C1312.5 74.6583 1311.9 74.5 1311.25 74.5C1310.61 74.5 1310.01 74.6667 1309.45 75C1308.9 75.3167 1308.45 75.7833 1308.1 76.4C1307.76 77.0167 1307.6 77.7417 1307.6 78.575C1307.6 79.4083 1307.76 80.1333 1308.1 80.75C1308.45 81.3667 1308.9 81.8417 1309.45 82.175C1310.01 82.4917 1310.61 82.65 1311.25 82.65C1311.9 82.65 1312.5 82.4833 1313.05 82.15C1313.61 81.8167 1314.06 81.3417 1314.4 80.725C1314.75 80.1083 1314.92 79.375 1314.92 78.525ZM1324.54 73.65C1324.99 73.0167 1325.61 72.4917 1326.39 72.075C1327.19 71.6417 1328.1 71.425 1329.12 71.425C1330.3 71.425 1331.37 71.7167 1332.32 72.3C1333.28 72.8833 1334.04 73.7167 1334.59 74.8C1335.16 75.8667 1335.44 77.1083 1335.44 78.525C1335.44 79.9417 1335.16 81.2 1334.59 82.3C1334.04 83.3833 1333.28 84.225 1332.32 84.825C1331.37 85.425 1330.3 85.725 1329.12 85.725C1328.1 85.725 1327.2 85.5167 1326.42 85.1C1325.65 84.6833 1325.02 84.1583 1324.54 83.525V92.1H1321.04V71.65H1324.54V73.65ZM1331.87 78.525C1331.87 77.6917 1331.69 76.975 1331.34 76.375C1331.01 75.7583 1330.56 75.2917 1329.99 74.975C1329.44 74.6583 1328.84 74.5 1328.19 74.5C1327.56 74.5 1326.96 74.6667 1326.39 75C1325.84 75.3167 1325.39 75.7833 1325.04 76.4C1324.71 77.0167 1324.54 77.7417 1324.54 78.575C1324.54 79.4083 1324.71 80.1333 1325.04 80.75C1325.39 81.3667 1325.84 81.8417 1326.39 82.175C1326.96 82.4917 1327.56 82.65 1328.19 82.65C1328.84 82.65 1329.44 82.4833 1329.99 82.15C1330.56 81.8167 1331.01 81.3417 1331.34 80.725C1331.69 80.1083 1331.87 79.375 1331.87 78.525ZM1344.13 85.725C1342.8 85.725 1341.6 85.4333 1340.53 84.85C1339.47 84.25 1338.63 83.4083 1338.01 82.325C1337.41 81.2417 1337.11 79.9917 1337.11 78.575C1337.11 77.1583 1337.42 75.9083 1338.03 74.825C1338.67 73.7417 1339.53 72.9083 1340.61 72.325C1341.69 71.725 1342.9 71.425 1344.23 71.425C1345.57 71.425 1346.78 71.725 1347.86 72.325C1348.94 72.9083 1349.79 73.7417 1350.41 74.825C1351.04 75.9083 1351.36 77.1583 1351.36 78.575C1351.36 79.9917 1351.03 81.2417 1350.38 82.325C1349.75 83.4083 1348.88 84.25 1347.78 84.85C1346.7 85.4333 1345.48 85.725 1344.13 85.725ZM1344.13 82.675C1344.77 82.675 1345.36 82.525 1345.91 82.225C1346.48 81.9083 1346.93 81.4417 1347.26 80.825C1347.59 80.2083 1347.76 79.4583 1347.76 78.575C1347.76 77.2583 1347.41 76.25 1346.71 75.55C1346.03 74.8333 1345.18 74.475 1344.18 74.475C1343.18 74.475 1342.34 74.8333 1341.66 75.55C1340.99 76.25 1340.66 77.2583 1340.66 78.575C1340.66 79.8917 1340.98 80.9083 1341.63 81.625C1342.3 82.325 1343.13 82.675 1344.13 82.675ZM1357.43 73.8C1357.88 73.0667 1358.46 72.4917 1359.18 72.075C1359.91 71.6583 1360.74 71.45 1361.68 71.45V75.125H1360.75C1359.65 75.125 1358.82 75.3833 1358.25 75.9C1357.7 76.4167 1357.43 77.3167 1357.43 78.6V85.5H1353.93V71.65H1357.43V73.8ZM1368.11 74.525V81.225C1368.11 81.6917 1368.22 82.0333 1368.43 82.25C1368.67 82.45 1369.05 82.55 1369.58 82.55H1371.21V85.5H1369.01C1366.06 85.5 1364.58 84.0667 1364.58 81.2V74.525H1362.93V71.65H1364.58V68.225H1368.11V71.65H1371.21V74.525H1368.11Z" fill="#242424"/>
<path d="M1202.04 105.6C1203.52 105.6 1204.81 105.887 1205.92 106.46C1207.04 107.02 1207.9 107.833 1208.5 108.9C1209.11 109.953 1209.42 111.187 1209.42 112.6C1209.42 114.013 1209.11 115.24 1208.5 116.28C1207.9 117.32 1207.04 118.12 1205.92 118.68C1204.81 119.227 1203.52 119.5 1202.04 119.5H1197.5V105.6H1202.04ZM1202.04 117.64C1203.67 117.64 1204.91 117.2 1205.78 116.32C1206.65 115.44 1207.08 114.2 1207.08 112.6C1207.08 110.987 1206.65 109.727 1205.78 108.82C1204.91 107.913 1203.67 107.46 1202.04 107.46H1199.78V117.64H1202.04ZM1221.78 113.72C1221.78 114.133 1221.75 114.507 1221.7 114.84H1213.28C1213.35 115.72 1213.67 116.427 1214.26 116.96C1214.85 117.493 1215.57 117.76 1216.42 117.76C1217.65 117.76 1218.51 117.247 1219.02 116.22H1221.48C1221.15 117.233 1220.54 118.067 1219.66 118.72C1218.79 119.36 1217.71 119.68 1216.42 119.68C1215.37 119.68 1214.42 119.447 1213.58 118.98C1212.75 118.5 1212.1 117.833 1211.62 116.98C1211.15 116.113 1210.92 115.113 1210.92 113.98C1210.92 112.847 1211.15 111.853 1211.6 111C1212.07 110.133 1212.71 109.467 1213.54 109C1214.38 108.533 1215.34 108.3 1216.42 108.3C1217.46 108.3 1218.39 108.527 1219.2 108.98C1220.01 109.433 1220.65 110.073 1221.1 110.9C1221.55 111.713 1221.78 112.653 1221.78 113.72ZM1219.4 113C1219.39 112.16 1219.09 111.487 1218.5 110.98C1217.91 110.473 1217.19 110.22 1216.32 110.22C1215.53 110.22 1214.86 110.473 1214.3 110.98C1213.74 111.473 1213.41 112.147 1213.3 113H1219.4ZM1223.26 113.94C1223.26 112.833 1223.49 111.853 1223.94 111C1224.41 110.147 1225.04 109.487 1225.82 109.02C1226.62 108.54 1227.51 108.3 1228.48 108.3C1229.2 108.3 1229.91 108.46 1230.6 108.78C1231.31 109.087 1231.87 109.5 1232.28 110.02V104.7H1234.58V119.5H1232.28V117.84C1231.91 118.373 1231.39 118.813 1230.72 119.16C1230.07 119.507 1229.32 119.68 1228.46 119.68C1227.5 119.68 1226.62 119.44 1225.82 118.96C1225.04 118.467 1224.41 117.787 1223.94 116.92C1223.49 116.04 1223.26 115.047 1223.26 113.94ZM1232.28 113.98C1232.28 113.22 1232.12 112.56 1231.8 112C1231.5 111.44 1231.09 111.013 1230.58 110.72C1230.08 110.427 1229.53 110.28 1228.94 110.28C1228.36 110.28 1227.81 110.427 1227.3 110.72C1226.8 111 1226.38 111.42 1226.06 111.98C1225.76 112.527 1225.6 113.18 1225.6 113.94C1225.6 114.7 1225.76 115.367 1226.06 115.94C1226.38 116.513 1226.8 116.953 1227.3 117.26C1227.82 117.553 1228.37 117.7 1228.94 117.7C1229.53 117.7 1230.08 117.553 1230.58 117.26C1231.09 116.967 1231.5 116.54 1231.8 115.98C1232.12 115.407 1232.28 114.74 1232.28 113.98ZM1238.74 107.02C1238.32 107.02 1237.98 106.88 1237.7 106.6C1237.42 106.32 1237.28 105.973 1237.28 105.56C1237.28 105.147 1237.42 104.8 1237.7 104.52C1237.98 104.24 1238.32 104.1 1238.74 104.1C1239.14 104.1 1239.48 104.24 1239.76 104.52C1240.04 104.8 1240.18 105.147 1240.18 105.56C1240.18 105.973 1240.04 106.32 1239.76 106.6C1239.48 106.88 1239.14 107.02 1238.74 107.02ZM1239.86 108.48V119.5H1237.58V108.48H1239.86ZM1242.09 113.98C1242.09 112.847 1242.32 111.853 1242.77 111C1243.24 110.133 1243.88 109.467 1244.69 109C1245.5 108.533 1246.44 108.3 1247.49 108.3C1248.82 108.3 1249.92 108.62 1250.79 109.26C1251.67 109.887 1252.26 110.787 1252.57 111.96H1250.11C1249.91 111.413 1249.59 110.987 1249.15 110.68C1248.71 110.373 1248.16 110.22 1247.49 110.22C1246.56 110.22 1245.81 110.553 1245.25 111.22C1244.7 111.873 1244.43 112.793 1244.43 113.98C1244.43 115.167 1244.7 116.093 1245.25 116.76C1245.81 117.427 1246.56 117.76 1247.49 117.76C1248.81 117.76 1249.68 117.18 1250.11 116.02H1252.57C1252.25 117.14 1251.65 118.033 1250.77 118.7C1249.89 119.353 1248.8 119.68 1247.49 119.68C1246.44 119.68 1245.5 119.447 1244.69 118.98C1243.88 118.5 1243.24 117.833 1242.77 116.98C1242.32 116.113 1242.09 115.113 1242.09 113.98ZM1254.08 113.94C1254.08 112.833 1254.31 111.853 1254.76 111C1255.23 110.147 1255.86 109.487 1256.64 109.02C1257.44 108.54 1258.32 108.3 1259.28 108.3C1260.15 108.3 1260.9 108.473 1261.54 108.82C1262.2 109.153 1262.72 109.573 1263.1 110.08V108.48H1265.4V119.5H1263.1V117.86C1262.72 118.38 1262.19 118.813 1261.52 119.16C1260.86 119.507 1260.1 119.68 1259.24 119.68C1258.3 119.68 1257.43 119.44 1256.64 118.96C1255.86 118.467 1255.23 117.787 1254.76 116.92C1254.31 116.04 1254.08 115.047 1254.08 113.94ZM1263.1 113.98C1263.1 113.22 1262.94 112.56 1262.62 112C1262.32 111.44 1261.91 111.013 1261.4 110.72C1260.9 110.427 1260.35 110.28 1259.76 110.28C1259.18 110.28 1258.63 110.427 1258.12 110.72C1257.62 111 1257.2 111.42 1256.88 111.98C1256.58 112.527 1256.42 113.18 1256.42 113.94C1256.42 114.7 1256.58 115.367 1256.88 115.94C1257.2 116.513 1257.62 116.953 1258.12 117.26C1258.64 117.553 1259.19 117.7 1259.76 117.7C1260.35 117.7 1260.9 117.553 1261.4 117.26C1261.91 116.967 1262.32 116.54 1262.62 115.98C1262.94 115.407 1263.1 114.74 1263.1 113.98ZM1271.06 110.34V116.44C1271.06 116.853 1271.15 117.153 1271.34 117.34C1271.54 117.513 1271.87 117.6 1272.34 117.6H1273.74V119.5H1271.94C1270.91 119.5 1270.13 119.26 1269.58 118.78C1269.03 118.3 1268.76 117.52 1268.76 116.44V110.34H1267.46V108.48H1268.76V105.74H1271.06V108.48H1273.74V110.34H1271.06ZM1285.94 113.72C1285.94 114.133 1285.91 114.507 1285.86 114.84H1277.44C1277.51 115.72 1277.83 116.427 1278.42 116.96C1279.01 117.493 1279.73 117.76 1280.58 117.76C1281.81 117.76 1282.67 117.247 1283.18 116.22H1285.64C1285.31 117.233 1284.7 118.067 1283.82 118.72C1282.95 119.36 1281.87 119.68 1280.58 119.68C1279.53 119.68 1278.58 119.447 1277.74 118.98C1276.91 118.5 1276.26 117.833 1275.78 116.98C1275.31 116.113 1275.08 115.113 1275.08 113.98C1275.08 112.847 1275.31 111.853 1275.76 111C1276.23 110.133 1276.87 109.467 1277.7 109C1278.54 108.533 1279.5 108.3 1280.58 108.3C1281.62 108.3 1282.55 108.527 1283.36 108.98C1284.17 109.433 1284.81 110.073 1285.26 110.9C1285.71 111.713 1285.94 112.653 1285.94 113.72ZM1283.56 113C1283.55 112.16 1283.25 111.487 1282.66 110.98C1282.07 110.473 1281.35 110.22 1280.48 110.22C1279.69 110.22 1279.02 110.473 1278.46 110.98C1277.9 111.473 1277.57 112.147 1277.46 113H1283.56ZM1287.42 113.94C1287.42 112.833 1287.65 111.853 1288.1 111C1288.57 110.147 1289.2 109.487 1289.98 109.02C1290.78 108.54 1291.67 108.3 1292.64 108.3C1293.36 108.3 1294.07 108.46 1294.76 108.78C1295.47 109.087 1296.03 109.5 1296.44 110.02V104.7H1298.74V119.5H1296.44V117.84C1296.07 118.373 1295.55 118.813 1294.88 119.16C1294.23 119.507 1293.48 119.68 1292.62 119.68C1291.66 119.68 1290.78 119.44 1289.98 118.96C1289.2 118.467 1288.57 117.787 1288.1 116.92C1287.65 116.04 1287.42 115.047 1287.42 113.94ZM1296.44 113.98C1296.44 113.22 1296.28 112.56 1295.96 112C1295.66 111.44 1295.25 111.013 1294.74 110.72C1294.24 110.427 1293.69 110.28 1293.1 110.28C1292.52 110.28 1291.97 110.427 1291.46 110.72C1290.96 111 1290.54 111.42 1290.22 111.98C1289.92 112.527 1289.76 113.18 1289.76 113.94C1289.76 114.7 1289.92 115.367 1290.22 115.94C1290.54 116.513 1290.96 116.953 1291.46 117.26C1291.98 117.553 1292.53 117.7 1293.1 117.7C1293.69 117.7 1294.24 117.553 1294.74 117.26C1295.25 116.967 1295.66 116.54 1295.96 115.98C1296.28 115.407 1296.44 114.74 1296.44 113.98ZM1310.93 119.68C1310.07 119.68 1309.29 119.527 1308.59 119.22C1307.91 118.9 1307.37 118.473 1306.97 117.94C1306.57 117.393 1306.36 116.787 1306.33 116.12H1308.69C1308.73 116.587 1308.95 116.98 1309.35 117.3C1309.77 117.607 1310.28 117.76 1310.89 117.76C1311.53 117.76 1312.03 117.64 1312.37 117.4C1312.73 117.147 1312.91 116.827 1312.91 116.44C1312.91 116.027 1312.71 115.72 1312.31 115.52C1311.93 115.32 1311.31 115.1 1310.45 114.86C1309.63 114.633 1308.95 114.413 1308.43 114.2C1307.91 113.987 1307.46 113.66 1307.07 113.22C1306.7 112.78 1306.51 112.2 1306.51 111.48C1306.51 110.893 1306.69 110.36 1307.03 109.88C1307.38 109.387 1307.87 109 1308.51 108.72C1309.17 108.44 1309.91 108.3 1310.75 108.3C1312.01 108.3 1313.01 108.62 1313.77 109.26C1314.55 109.887 1314.96 110.747 1315.01 111.84H1312.73C1312.69 111.347 1312.49 110.953 1312.13 110.66C1311.77 110.367 1311.29 110.22 1310.67 110.22C1310.07 110.22 1309.61 110.333 1309.29 110.56C1308.97 110.787 1308.81 111.087 1308.81 111.46C1308.81 111.753 1308.92 112 1309.13 112.2C1309.35 112.4 1309.61 112.56 1309.91 112.68C1310.22 112.787 1310.67 112.927 1311.27 113.1C1312.07 113.313 1312.73 113.533 1313.23 113.76C1313.75 113.973 1314.2 114.293 1314.57 114.72C1314.95 115.147 1315.14 115.713 1315.15 116.42C1315.15 117.047 1314.98 117.607 1314.63 118.1C1314.29 118.593 1313.79 118.98 1313.15 119.26C1312.53 119.54 1311.79 119.68 1310.93 119.68ZM1327.6 108.48V119.5H1325.32V118.2C1324.96 118.653 1324.48 119.013 1323.9 119.28C1323.32 119.533 1322.71 119.66 1322.06 119.66C1321.19 119.66 1320.41 119.48 1319.72 119.12C1319.04 118.76 1318.5 118.227 1318.1 117.52C1317.71 116.813 1317.52 115.96 1317.52 114.96V108.48H1319.78V114.62C1319.78 115.607 1320.02 116.367 1320.52 116.9C1321.01 117.42 1321.68 117.68 1322.54 117.68C1323.39 117.68 1324.06 117.42 1324.56 116.9C1325.06 116.367 1325.32 115.607 1325.32 114.62V108.48H1327.6ZM1332.89 110.1C1333.27 109.593 1333.8 109.167 1334.47 108.82C1335.13 108.473 1335.89 108.3 1336.73 108.3C1337.69 108.3 1338.56 108.54 1339.35 109.02C1340.15 109.487 1340.77 110.147 1341.23 111C1341.68 111.853 1341.91 112.833 1341.91 113.94C1341.91 115.047 1341.68 116.04 1341.23 116.92C1340.77 117.787 1340.15 118.467 1339.35 118.96C1338.56 119.44 1337.69 119.68 1336.73 119.68C1335.89 119.68 1335.14 119.513 1334.49 119.18C1333.83 118.833 1333.3 118.407 1332.89 117.9V124.74H1330.61V108.48H1332.89V110.1ZM1339.59 113.94C1339.59 113.18 1339.43 112.527 1339.11 111.98C1338.8 111.42 1338.39 111 1337.87 110.72C1337.36 110.427 1336.81 110.28 1336.23 110.28C1335.65 110.28 1335.11 110.427 1334.59 110.72C1334.08 111.013 1333.67 111.44 1333.35 112C1333.04 112.56 1332.89 113.22 1332.89 113.98C1332.89 114.74 1333.04 115.407 1333.35 115.98C1333.67 116.54 1334.08 116.967 1334.59 117.26C1335.11 117.553 1335.65 117.7 1336.23 117.7C1336.81 117.7 1337.36 117.553 1337.87 117.26C1338.39 116.953 1338.8 116.513 1339.11 115.94C1339.43 115.367 1339.59 114.7 1339.59 113.94ZM1346.44 110.1C1346.83 109.593 1347.35 109.167 1348.02 108.82C1348.69 108.473 1349.44 108.3 1350.28 108.3C1351.24 108.3 1352.11 108.54 1352.9 109.02C1353.7 109.487 1354.33 110.147 1354.78 111C1355.23 111.853 1355.46 112.833 1355.46 113.94C1355.46 115.047 1355.23 116.04 1354.78 116.92C1354.33 117.787 1353.7 118.467 1352.9 118.96C1352.11 119.44 1351.24 119.68 1350.28 119.68C1349.44 119.68 1348.69 119.513 1348.04 119.18C1347.39 118.833 1346.85 118.407 1346.44 117.9V124.74H1344.16V108.48H1346.44V110.1ZM1353.14 113.94C1353.14 113.18 1352.98 112.527 1352.66 111.98C1352.35 111.42 1351.94 111 1351.42 110.72C1350.91 110.427 1350.37 110.28 1349.78 110.28C1349.21 110.28 1348.66 110.427 1348.14 110.72C1347.63 111.013 1347.22 111.44 1346.9 112C1346.59 112.56 1346.44 113.22 1346.44 113.98C1346.44 114.74 1346.59 115.407 1346.9 115.98C1347.22 116.54 1347.63 116.967 1348.14 117.26C1348.66 117.553 1349.21 117.7 1349.78 117.7C1350.37 117.7 1350.91 117.553 1351.42 117.26C1351.94 116.953 1352.35 116.513 1352.66 115.94C1352.98 115.367 1353.14 114.7 1353.14 113.94ZM1362.49 119.68C1361.45 119.68 1360.51 119.447 1359.67 118.98C1358.83 118.5 1358.17 117.833 1357.69 116.98C1357.21 116.113 1356.97 115.113 1356.97 113.98C1356.97 112.86 1357.22 111.867 1357.71 111C1358.21 110.133 1358.88 109.467 1359.73 109C1360.59 108.533 1361.54 108.3 1362.59 108.3C1363.65 108.3 1364.6 108.533 1365.45 109C1366.31 109.467 1366.98 110.133 1367.47 111C1367.97 111.867 1368.21 112.86 1368.21 113.98C1368.21 115.1 1367.96 116.093 1367.45 116.96C1366.95 117.827 1366.25 118.5 1365.37 118.98C1364.51 119.447 1363.55 119.68 1362.49 119.68ZM1362.49 117.7C1363.08 117.7 1363.63 117.56 1364.13 117.28C1364.65 117 1365.07 116.58 1365.39 116.02C1365.71 115.46 1365.87 114.78 1365.87 113.98C1365.87 113.18 1365.72 112.507 1365.41 111.96C1365.11 111.4 1364.7 110.98 1364.19 110.7C1363.69 110.42 1363.14 110.28 1362.55 110.28C1361.97 110.28 1361.42 110.42 1360.91 110.7C1360.42 110.98 1360.03 111.4 1359.73 111.96C1359.44 112.507 1359.29 113.18 1359.29 113.98C1359.29 115.167 1359.59 116.087 1360.19 116.74C1360.81 117.38 1361.57 117.7 1362.49 117.7ZM1372.75 110.08C1373.08 109.52 1373.52 109.087 1374.07 108.78C1374.63 108.46 1375.29 108.3 1376.05 108.3V110.66H1375.47C1374.58 110.66 1373.9 110.887 1373.43 111.34C1372.98 111.793 1372.75 112.58 1372.75 113.7V119.5H1370.47V108.48H1372.75V110.08ZM1380.8 110.34V116.44C1380.8 116.853 1380.9 117.153 1381.08 117.34C1381.28 117.513 1381.62 117.6 1382.08 117.6H1383.48V119.5H1381.68C1380.66 119.5 1379.87 119.26 1379.32 118.78C1378.78 118.3 1378.5 117.52 1378.5 116.44V110.34H1377.2V108.48H1378.5V105.74H1380.8V108.48H1383.48V110.34H1380.8Z" fill="#898989"/>
<defs>
<clipPath id="clip0_117_610">
<rect width="60" height="60" fill="white" transform="translate(51 62.5)"/>
</clipPath>
<clipPath id="clip1_117_610">
<rect width="60" height="60" fill="white" transform="translate(443.333 62.5)"/>
</clipPath>
<clipPath id="clip2_117_610">
<rect width="60" height="60" fill="white" transform="translate(826.667 62.5)"/>
</clipPath>
<clipPath id="clip3_117_610">
<rect width="60" height="60" fill="white" transform="translate(1126 62.5)"/>
</clipPath>
</defs>
</svg>
