<svg width="34" height="13" viewBox="0 0 34 13" fill="none" xmlns="http://www.w3.org/2000/svg">
<path d="M9.336 12H7.512L2.024 3.696V12H0.2V0.863999H2.024L7.512 9.152V0.863999H9.336V12ZM19.8113 7.376C19.8113 7.70667 19.7899 8.00533 19.7473 8.272H13.0113C13.0646 8.976 13.3259 9.54133 13.7953 9.968C14.2646 10.3947 14.8406 10.608 15.5233 10.608C16.5046 10.608 17.1979 10.1973 17.6033 9.376H19.5712C19.3046 10.1867 18.8193 10.8533 18.1153 11.376C17.4219 11.888 16.5579 12.144 15.5233 12.144C14.6806 12.144 13.9233 11.9573 13.2513 11.584C12.5899 11.2 12.0673 10.6667 11.6833 9.984C11.3099 9.29067 11.1233 8.49067 11.1233 7.584C11.1233 6.67733 11.3046 5.88267 11.6673 5.2C12.0406 4.50667 12.5579 3.97333 13.2193 3.6C13.8913 3.22667 14.6593 3.04 15.5233 3.04C16.3553 3.04 17.0966 3.22133 17.7473 3.584C18.3979 3.94667 18.9046 4.45867 19.2673 5.12C19.6299 5.77067 19.8113 6.52267 19.8113 7.376ZM17.9073 6.8C17.8966 6.128 17.6566 5.58933 17.1873 5.184C16.7179 4.77867 16.1366 4.576 15.4433 4.576C14.8139 4.576 14.2753 4.77867 13.8273 5.184C13.3793 5.57867 13.1126 6.11733 13.0273 6.8H17.9073ZM33.4463 3.184L30.7103 12H28.7903L27.0143 5.488L25.2383 12H23.3183L20.5663 3.184H22.4223L24.2623 10.272L26.1343 3.184H28.0383L29.8303 10.24L31.6543 3.184H33.4463Z" fill="white"/>
</svg>
